<?xml version="1.0" standalone="no"?>
<!DOCTYPE svg PUBLIC "-//W3C//DTD SVG 20010904//EN"
 "http://www.w3.org/TR/2001/REC-SVG-20010904/DTD/svg10.dtd">
<svg version="1.0" xmlns="http://www.w3.org/2000/svg"
 width="512.000000pt" height="512.000000pt" viewBox="0 0 512.000000 512.000000"
 preserveAspectRatio="xMidYMid meet">
<metadata>
Created by potrace 1.16, written by Peter Selinger 2001-2019
</metadata>
<g transform="translate(0.000000,512.000000) scale(0.100000,-0.100000)"
fill="#000000" stroke="none">
<path d="M2445 4849 c-49 -5 -121 -15 -160 -23 -38 -8 -54 -13 -35 -10 99 13
325 16 417 5 110 -13 227 -42 277 -68 l31 -17 -30 -8 c-28 -7 -27 -7 6 -3 20
2 41 0 45 -5 5 -5 61 -25 124 -45 289 -92 585 -278 845 -531 55 -53 103 -96
106 -96 14 2 167 -149 238 -233 246 -296 392 -642 432 -1024 15 -141 7 -429
-16 -561 -66 -392 -234 -773 -472 -1071 -256 -321 -627 -598 -975 -729 -49
-19 -86 -35 -84 -37 7 -7 200 69 296 117 277 139 480 287 674 491 309 325 514
737 597 1204 21 114 24 161 24 385 0 278 -8 345 -66 554 -107 390 -311 731
-623 1041 -406 405 -839 619 -1341 665 -123 11 -179 11 -310 -1z"/>
<path d="M2188 4803 c7 -3 16 -2 19 1 4 3 -2 6 -13 5 -11 0 -14 -3 -6 -6z"/>
<path d="M2414 4750 c-138 -11 -338 -52 -453 -92 -129 -45 -328 -132 -410
-178 -198 -113 -421 -304 -581 -500 -175 -214 -333 -522 -405 -793 -40 -146
-28 -145 19 3 24 74 55 164 71 200 64 151 202 403 216 394 5 -3 6 3 2 12 -4
11 -2 15 4 11 6 -4 17 1 24 11 13 15 12 16 -3 3 -83 -65 134 221 253 334 113
107 313 260 391 301 46 24 32 9 -24 -27 -174 -110 -422 -344 -563 -529 -70
-93 -20 -45 105 100 123 143 199 213 355 327 334 245 564 346 905 398 111 17
395 24 515 13 50 -5 59 -4 30 2 -62 14 -328 20 -451 10z m-794 -255 c0 -2 -10
-9 -22 -15 -22 -11 -22 -10 -4 4 21 17 26 19 26 11z"/>
<path d="M2465 4699 c-16 -5 -77 -14 -135 -20 -197 -20 -388 -78 -595 -179
-281 -137 -508 -317 -719 -570 -129 -154 -296 -418 -296 -466 0 -9 -4 -12 -10
-9 -6 4 -7 -1 -3 -11 4 -12 3 -15 -5 -10 -7 4 -10 2 -7 -6 7 -18 -51 -164 -58
-147 -4 8 -3 1 0 -15 4 -20 2 -27 -5 -22 -8 5 -10 1 -5 -10 5 -12 3 -15 -6 -9
-10 5 -11 2 -7 -11 3 -11 -1 -41 -9 -68 -8 -27 -13 -51 -11 -54 11 -10 24 11
36 55 42 153 160 401 266 560 308 459 767 785 1293 918 53 13 120 27 150 31
l55 7 -34 -41 c-21 -24 -49 -45 -71 -51 -43 -13 -67 -37 -84 -88 -12 -34 -19
-40 -65 -53 -57 -17 -122 -66 -145 -109 -10 -20 -15 -67 -16 -149 -2 -115 -1
-123 23 -160 15 -21 40 -45 57 -52 25 -10 29 -15 21 -30 -15 -27 -12 -88 5
-113 18 -28 3 -89 -32 -123 -31 -31 -30 -85 2 -140 32 -54 34 -113 5 -188 -23
-63 -21 -105 6 -158 13 -26 12 -29 -36 -79 -28 -29 -50 -56 -50 -61 0 -5 10
-13 23 -18 17 -7 10 -9 -34 -9 -49 -1 -59 2 -72 23 -17 25 -63 36 -157 35
-134 0 -280 -52 -349 -123 -42 -43 -48 -99 -15 -123 17 -13 21 -12 34 8 47 67
140 120 244 140 52 9 60 8 80 -8 50 -45 128 -74 141 -53 3 6 37 10 75 10 38 0
81 5 96 10 15 6 28 9 30 7 2 -2 -17 -27 -42 -57 -76 -89 -98 -142 -99 -235 0
-80 11 -118 51 -172 16 -22 15 -23 -93 -77 -148 -74 -191 -125 -259 -309 -57
-153 -198 -393 -215 -366 -15 24 -9 43 21 73 34 34 46 76 29 108 -27 52 -68
51 -133 -2 -26 -22 -52 -40 -57 -40 -5 0 -9 29 -9 64 l0 63 51 7 c59 8 109 49
109 88 0 38 -21 102 -40 123 -16 18 -17 23 -5 45 8 14 14 32 15 40 0 9 9 33
20 55 27 53 26 100 -4 136 -22 25 -23 32 -13 60 17 45 -7 59 -100 59 -40 0
-73 2 -73 4 0 16 27 77 45 101 46 62 55 91 55 174 l0 81 63 69 c91 98 108 171
63 266 -13 28 -36 61 -51 75 -55 50 -53 90 10 163 63 73 69 146 19 207 -34 40
-49 38 -24 -2 22 -37 26 -107 9 -141 -6 -12 -29 -41 -52 -64 -58 -60 -57 -103
2 -202 59 -96 66 -159 27 -225 -15 -25 -35 -50 -45 -55 -33 -18 -51 -74 -51
-158 -1 -43 -6 -88 -13 -100 -10 -18 -12 -7 -11 70 0 131 0 128 44 193 51 75
52 96 1 41 -51 -56 -61 -77 -61 -129 l-1 -43 -24 45 c-33 62 -33 137 0 208 32
69 31 72 -5 37 -39 -38 -64 -104 -57 -154 3 -22 21 -67 41 -100 40 -66 56
-130 47 -188 -7 -35 -8 -33 -13 27 -7 82 -28 123 -79 158 -22 15 -56 40 -74
55 -66 54 -56 142 28 271 58 89 64 124 27 173 -32 44 -56 53 -35 13 29 -56 20
-92 -40 -167 -129 -161 -111 -287 57 -391 80 -50 109 -132 90 -257 l-10 -60
-2 60 c-3 106 -19 131 -142 231 -145 119 -166 234 -69 381 21 32 41 67 45 78
9 31 -15 68 -59 91 -46 23 -54 47 -28 77 l18 21 -25 -15 c-42 -27 -38 -60 14
-103 57 -46 58 -66 9 -153 -31 -56 -37 -78 -41 -144 -6 -107 13 -145 133 -255
91 -84 124 -131 109 -155 -4 -7 -3 -10 3 -6 5 3 10 -6 10 -21 0 -15 3 -40 7
-55 6 -26 5 -27 -34 -27 -72 0 -98 -31 -68 -80 11 -16 8 -23 -15 -48 -20 -21
-27 -38 -27 -69 0 -32 -5 -46 -22 -57 -49 -35 -68 -17 -68 62 0 56 25 102 69
128 39 23 40 36 2 23 -72 -25 -124 -117 -104 -183 10 -31 8 -33 -18 -43 -46
-18 -40 -57 11 -83 61 -31 60 -44 -4 -103 -109 -99 -92 -193 48 -277 l40 -24
-49 -12 c-27 -7 -60 -21 -74 -32 -112 -84 -64 -272 69 -272 l36 0 18 -93 c27
-138 53 -211 100 -275 47 -63 122 -132 144 -132 8 0 27 14 42 30 45 48 78 42
155 -30 134 -125 353 -247 562 -314 189 -61 198 -43 13 24 -318 117 -586 304
-694 484 -46 77 -47 43 -2 -40 l35 -63 -29 -6 c-17 -4 -39 -18 -50 -32 -17
-22 -24 -25 -44 -15 -48 22 -157 192 -172 270 -6 29 -4 32 19 32 14 0 37 -11
51 -25 30 -30 45 -31 79 -5 14 11 32 20 40 20 21 0 26 10 41 82 l13 62 17 -69
c35 -140 121 -285 224 -376 115 -103 322 -220 530 -300 61 -23 112 -46 112
-49 0 -3 -21 -21 -46 -39 -29 -20 -52 -46 -62 -71 -10 -22 -22 -40 -28 -40 -7
0 -72 25 -145 55 -135 56 -280 133 -402 213 -37 25 -69 43 -71 41 -7 -7 76
-66 165 -119 120 -71 127 -78 24 -24 -167 87 -283 173 -449 334 -206 200 -312
345 -431 585 -74 150 -97 222 -30 93 25 -49 47 -88 50 -88 3 0 -6 22 -19 48
-78 154 -137 337 -171 527 -23 127 -30 377 -16 503 7 57 10 106 8 108 -3 3
-11 -41 -18 -98 -19 -143 -17 -409 5 -528 14 -79 64 -268 91 -345 6 -16 5 -17
-4 -5 -17 23 -77 215 -95 300 -50 245 -39 574 27 826 7 28 10 59 7 70 -8 21
-42 -110 -66 -251 -21 -130 -29 -380 -15 -500 26 -223 65 -351 177 -575 254
-511 515 -806 909 -1028 137 -78 407 -174 596 -212 222 -45 644 -46 845 -1
252 56 504 181 721 357 156 127 327 320 397 449 15 28 20 41 12 30 -8 -11 -22
-29 -31 -40 -16 -20 -16 -20 -6 2 6 12 11 48 11 81 0 47 -5 67 -25 96 -52 77
-71 168 -45 217 12 21 50 25 83 8 22 -12 22 -12 3 10 -31 35 -76 25 -101 -21
-20 -37 -18 -69 10 -156 6 -18 4 -22 -14 -22 -14 0 -28 -11 -39 -30 -19 -34
-25 -36 -42 -15 -9 10 -11 46 -8 118 3 90 7 108 31 149 33 57 67 84 120 99
114 31 205 -74 163 -186 -20 -50 -63 -82 -135 -100 -24 -7 -40 -14 -35 -17 5
-3 40 2 78 12 57 14 76 25 107 58 44 46 57 96 40 153 -42 139 -201 172 -332
68 -44 -35 -48 -31 -18 17 28 45 90 80 177 100 136 31 201 112 210 264 5 84
-6 132 -40 176 -12 15 -22 40 -22 57 -1 17 -7 32 -15 35 -11 3 -12 -2 -7 -23
6 -22 4 -26 -11 -23 -10 2 -33 33 -53 72 -29 57 -43 74 -79 93 -24 13 -53 23
-63 23 -27 0 -75 -26 -82 -46 -9 -25 0 -28 26 -10 29 21 83 20 119 -1 27 -16
79 -101 79 -129 0 -6 -7 -17 -15 -24 -21 -17 -19 -36 6 -70 18 -23 21 -39 17
-92 -6 -102 -29 -135 -132 -189 -48 -25 -92 -52 -99 -59 -15 -16 -10 -14 95
38 120 60 158 110 158 213 0 42 -18 99 -31 99 -15 0 -10 30 5 36 22 8 54 -13
72 -48 24 -46 15 -168 -15 -209 -24 -33 -14 -40 14 -9 27 30 29 17 5 -29 -26
-52 -65 -76 -143 -90 -79 -14 -144 -54 -184 -115 -56 -82 -64 -128 -57 -315 6
-139 4 -177 -11 -236 -18 -73 -90 -235 -120 -270 l-17 -20 8 20 c3 11 15 47
24 81 10 33 25 75 34 92 45 88 56 233 31 407 -8 55 -14 116 -14 135 -1 46 38
138 79 190 18 22 30 43 28 46 -9 8 -80 -77 -99 -120 l-19 -41 0 33 c0 67 60
146 134 176 64 27 106 65 132 120 41 87 27 181 -36 247 -58 62 -155 65 -213 8
-36 -36 -47 -27 -47 39 0 49 17 86 55 122 50 47 97 121 117 183 28 89 28 229
-1 284 -25 49 -82 100 -159 141 -32 17 -66 40 -77 52 -18 20 -18 20 47 20 56
0 71 -4 105 -29 93 -67 126 -147 127 -311 1 -137 -14 -196 -74 -285 -22 -33
-40 -69 -40 -80 0 -13 9 -6 30 25 16 25 42 63 56 85 72 106 89 272 45 429 -25
92 -87 216 -132 266 -28 32 -29 32 -11 5 25 -39 57 -103 67 -134 7 -24 6 -24
-32 7 -53 42 -83 52 -153 52 -49 0 -64 4 -91 27 -17 15 -42 50 -55 78 -19 40
-24 45 -24 24 0 -39 59 -148 104 -194 27 -26 60 -46 96 -57 112 -35 172 -118
173 -237 1 -74 -20 -164 -36 -154 -5 3 -7 0 -5 -8 8 -23 -30 -88 -82 -137 -67
-65 -90 -107 -90 -165 0 -53 19 -97 58 -139 27 -30 68 -36 103 -18 15 8 19 7
19 -4 0 -20 -31 -36 -69 -36 -105 0 -165 206 -98 337 15 28 49 78 76 111 28
33 59 75 71 94 16 27 20 29 21 13 1 -11 5 7 10 40 23 153 -54 269 -177 269
-85 0 -167 -69 -128 -108 12 -12 21 -12 65 2 51 16 51 16 70 -7 25 -30 24 -87
-1 -128 -11 -18 -16 -33 -11 -33 5 0 19 20 31 45 26 53 21 104 -12 137 -17 17
-29 20 -69 15 -57 -7 -63 4 -15 27 108 51 206 -23 206 -155 0 -65 -22 -112
-97 -204 -71 -88 -95 -142 -101 -227 -10 -148 68 -268 176 -268 35 0 72 37 72
72 0 26 -34 78 -51 78 -5 0 -9 -7 -9 -15 0 -9 -9 -15 -21 -15 -29 0 -21 30 13
49 24 14 32 14 70 1 59 -21 88 -66 88 -138 0 -74 -29 -122 -110 -182 -74 -55
-101 -82 -123 -125 l-15 -30 -7 27 c-9 36 27 111 68 140 17 13 56 37 86 53 34
18 61 41 69 58 18 37 7 47 -17 15 -11 -13 -56 -45 -100 -71 -48 -28 -87 -58
-97 -77 -10 -16 -21 -30 -24 -30 -4 0 -19 43 -33 96 -33 117 -99 285 -128 325
-23 32 -84 66 -169 94 l-55 18 30 13 c17 7 36 13 44 14 32 1 -17 32 -177 111
-127 64 -161 85 -142 87 102 14 126 192 38 288 -19 22 -19 22 1 63 38 74 20
176 -44 253 l-25 30 25 20 c20 15 25 29 25 61 0 49 26 218 40 262 7 22 21 35
54 48 86 35 155 129 156 209 0 21 -7 56 -16 78 -13 31 -14 46 -5 70 24 71 -24
193 -97 245 -42 29 -48 30 -151 30 -106 0 -107 0 -146 32 -52 43 -155 96 -230
119 -43 13 -53 19 -37 22 44 7 20 18 -80 35 -112 19 -148 20 -193 6z m180 -65
c39 -13 95 -32 125 -40 67 -19 156 -65 195 -102 l29 -27 -46 -7 c-37 -7 -56
-4 -95 13 -29 13 -78 24 -125 27 -69 4 -81 2 -120 -21 -24 -14 -52 -35 -63
-48 -15 -16 -6 -13 30 12 46 31 56 34 125 34 49 0 88 -6 114 -18 l38 -17 -63
-42 c-63 -43 -91 -81 -104 -143 -6 -24 -1 -19 26 24 26 42 48 62 94 87 147 81
256 60 309 -60 21 -46 31 -55 95 -90 40 -21 75 -36 77 -33 3 3 -26 24 -65 46
-62 37 -74 48 -98 99 -22 45 -37 61 -70 78 l-42 22 31 6 c17 3 67 6 112 6 93
0 133 -17 166 -72 18 -30 28 -88 15 -88 -23 0 -65 34 -65 52 0 25 -27 58 -47
58 -8 0 -6 -7 8 -21 26 -26 21 -55 -9 -52 -35 4 -26 -12 17 -32 63 -28 89 -62
105 -139 16 -79 9 -119 -31 -166 l-26 -31 -26 24 c-35 33 -81 55 -131 63 -39
6 -107 50 -96 62 3 3 38 11 78 18 l73 13 44 -30 c51 -35 60 -33 29 7 -13 15
-21 37 -20 48 3 15 0 18 -20 12 -82 -24 -199 -39 -248 -30 l-53 9 69 27 c82
32 68 36 -33 8 -47 -14 -94 -20 -135 -18 -54 3 -64 6 -74 27 l-12 23 -7 -22
c-4 -13 -12 -19 -21 -16 -8 3 -69 9 -135 12 l-121 7 5 61 5 61 -18 -35 c-11
-19 -19 -44 -20 -56 0 -44 -50 -60 -66 -21 -6 12 -10 93 -10 179 1 140 -1 156
-14 142 -11 -11 -14 -32 -12 -79 4 -91 4 -130 -1 -210 -4 -57 -8 -71 -22 -74
-19 -3 -19 -5 0 134 3 26 -4 12 -20 -39 -14 -44 -25 -88 -25 -98 0 -10 -16
-26 -39 -38 -22 -10 -50 -34 -64 -51 -24 -31 -25 -31 -36 -11 -6 12 -14 41
-17 66 -5 36 -1 55 22 102 15 33 30 64 32 69 12 27 -42 -35 -58 -65 -28 -57
-31 -99 -10 -160 10 -30 17 -56 16 -58 -2 -1 -17 9 -34 23 -39 32 -50 81 -31
138 10 31 11 41 1 45 -20 6 -14 52 13 99 42 71 140 108 162 61 l11 -23 5 25
c3 14 9 43 12 64 8 48 50 92 97 101 23 4 40 16 51 35 21 35 109 80 156 80 20
0 68 -12 106 -26z m179 -518 c136 -32 186 -57 242 -119 l44 -49 0 -87 0 -86
-33 65 c-32 65 -132 180 -156 180 -7 0 11 -26 39 -57 29 -33 70 -97 95 -148
72 -148 73 -218 1 -81 -39 74 -118 176 -138 176 -5 0 4 -17 20 -37 36 -47 82
-126 82 -141 0 -7 -30 10 -67 36 -209 150 -421 236 -613 248 -60 4 -99 1 -132
-9 -28 -9 -48 -11 -48 -5 0 47 107 110 235 138 77 17 310 4 429 -24z m-337
-136 c220 -57 623 -337 623 -433 0 -42 -32 -29 -103 40 -148 145 -334 265
-514 330 -81 29 -113 36 -183 37 -73 1 -92 -3 -138 -25 -56 -28 -66 -25 -29 8
82 75 173 86 344 43z m733 -7 l55 -24 -24 -20 c-34 -28 -56 -24 -88 19 -47 59
-49 65 -22 57 13 -4 49 -18 79 -32z m-750 -70 c73 -23 190 -84 240 -124 21
-17 16 -16 -33 6 -133 57 -217 77 -342 82 -73 3 -136 1 -159 -6 -48 -13 -55
-8 -30 20 57 63 174 71 324 22z m-35 -68 c47 -9 122 -29 164 -45 l78 -30 5
-113 c10 -193 4 -269 -20 -309 -12 -20 -22 -44 -22 -54 0 -51 -87 -124 -146
-124 -28 0 -32 4 -38 35 -9 44 -53 95 -111 129 -50 30 -63 33 -41 10 16 -16
21 -50 10 -78 -5 -12 -9 -13 -25 -3 -15 10 -26 7 -62 -12 -23 -13 -53 -21 -67
-20 -39 6 -37 48 11 190 29 87 40 135 35 153 -8 32 -26 34 -26 2 0 -21 -4 -23
-44 -22 -37 1 -47 5 -56 24 -15 34 -4 44 45 36 37 -5 44 -3 49 14 9 27 -11 68
-40 81 -13 6 -24 15 -24 20 0 18 39 99 51 106 43 27 153 31 274 10z m369 -236
c17 -11 49 -22 70 -26 37 -6 38 -7 15 -15 -57 -21 -113 12 -144 84 -22 55 -17
70 7 19 12 -24 35 -52 52 -62z m96 -8 c3 -2 -6 0 -20 4 -32 9 -70 44 -70 64 0
10 15 1 42 -24 24 -22 45 -42 48 -44z m-81 -62 c27 -10 30 -14 17 -21 -19 -11
-68 13 -90 44 -25 36 -18 44 12 15 15 -15 43 -32 61 -38z m151 -17 c35 -29 38
-97 7 -166 -70 -153 -147 -136 -147 33 0 61 3 73 27 101 42 50 78 60 113 32z
m-817 1 c-7 -2 -21 -2 -30 0 -10 3 -4 5 12 5 17 0 24 -2 18 -5z m631 -29 c29
5 30 5 12 -9 -11 -8 -23 -15 -27 -15 -19 0 -59 21 -59 30 0 7 7 7 21 -1 12 -6
36 -8 53 -5z m-629 -41 c-36 -94 -56 -172 -51 -208 l5 -40 -20 50 -20 50 27
82 c22 66 32 83 47 83 14 0 17 -5 12 -17z m926 2 c16 -9 27 -20 24 -26 -4 -5
-9 -8 -13 -6 -41 19 -62 32 -62 39 0 12 18 10 51 -7z m-316 -36 c25 -47 13
-56 -13 -10 -13 23 -19 41 -13 41 6 0 18 -14 26 -31z m336 -42 c-11 -11 -48 8
-61 32 -9 18 -7 18 30 -2 21 -12 35 -26 31 -30z m59 -20 c0 -11 -7 -29 -17
-39 -15 -17 -15 -20 5 -41 15 -16 22 -35 21 -58 -1 -27 -3 -29 -6 -9 -7 35
-20 49 -72 74 -24 11 -51 32 -60 46 l-16 25 29 -23 c53 -41 105 -17 93 44 -3
20 -2 22 9 13 8 -6 14 -21 14 -32z m-376 -39 c13 -24 27 -59 31 -78 l6 -35
-19 24 c-11 14 -27 38 -37 55 l-16 31 26 -30 27 -30 -26 46 c-14 25 -26 49
-26 52 0 16 11 4 34 -35z m-348 -136 c4 -18 4 -36 1 -39 -4 -3 -27 13 -53 36
-26 22 -51 41 -56 41 -5 0 -2 10 6 22 9 12 16 35 16 51 0 28 2 27 40 -24 22
-29 43 -68 46 -87z m600 50 c-7 -6 -55 21 -60 34 -3 8 8 5 29 -9 18 -12 32
-23 31 -25z m-776 -2 c0 -5 -5 -10 -11 -10 -5 0 -7 5 -4 10 3 6 8 10 11 10 2
0 4 -4 4 -10z m779 -20 c16 0 33 -4 36 -10 3 -6 -4 -10 -18 -10 -32 0 -87 20
-87 31 0 6 8 5 19 -1 11 -5 33 -10 50 -10z m-123 -17 c20 -90 56 -220 69 -247
9 -18 34 -50 55 -71 66 -65 51 -74 -30 -19 -54 37 -75 40 -148 18 -21 -6 -22
-4 -17 32 3 22 9 94 14 162 8 113 19 152 42 152 5 0 11 -12 15 -27z m-220 -26
c-10 -56 -58 -112 -121 -142 -110 -54 -257 -27 -334 61 -47 53 -37 59 14 9 48
-48 86 -63 43 -17 -14 15 -31 38 -38 52 -7 14 7 3 31 -24 24 -28 43 -54 42
-58 -2 -4 0 -7 5 -6 4 1 27 -4 52 -11 54 -16 135 -9 181 14 67 34 119 98 119
146 0 12 3 20 6 16 4 -3 4 -21 0 -40z m108 -31 c9 -30 15 -69 15 -88 -1 -27
-3 -28 -6 -8 -7 35 -30 121 -39 144 -5 13 -4 17 4 12 6 -3 18 -31 26 -60z
m301 38 c-46 -20 -135 -15 -135 6 0 5 15 4 32 -1 35 -10 95 -3 104 12 3 5 11
6 17 2 7 -4 0 -12 -18 -19z m-685 -119 c34 -15 34 -16 5 -10 -38 8 -71 32
-103 75 -25 34 -24 33 19 -7 24 -23 60 -49 79 -58z m-330 55 c-22 -31 -49 -54
-35 -29 10 17 47 59 52 59 3 0 -5 -13 -17 -30z m75 0 c0 -36 -40 -72 -106 -95
-47 -17 -149 -20 -149 -5 0 6 21 10 48 10 72 1 122 23 167 74 22 25 40 46 40
46 0 0 0 -14 0 -30z m441 1 c-26 -29 -79 -51 -121 -51 -33 0 -95 23 -95 36 0
2 14 -3 32 -12 45 -23 118 -14 160 19 40 31 47 34 24 8z m472 3 c-45 -19 -52
-36 -32 -75 36 -71 90 -90 120 -44 32 50 -19 91 -61 48 -16 -15 -17 -15 -13 8
2 13 15 30 31 39 27 14 29 14 53 -13 29 -34 31 -66 4 -95 -44 -46 -105 -33
-137 29 -8 14 -13 18 -13 9 0 -9 8 -27 17 -40 16 -23 16 -24 0 -11 -22 18 -41
83 -34 113 7 27 39 47 77 47 21 0 20 -2 -12 -15z m-1298 -48 c0 -14 -4 -28
-10 -31 -6 -4 -10 7 -10 24 0 17 5 31 10 31 6 0 10 -11 10 -24z m-42 2 c-3 -8
-32 -16 -69 -20 -85 -10 -163 -40 -228 -89 -29 -22 -55 -38 -58 -36 -10 11
106 98 157 117 90 34 205 50 198 28z m1028 -52 c17 -36 24 -68 23 -106 -2 -93
-15 -113 -16 -24 0 65 -5 93 -26 138 -15 31 -21 54 -16 50 6 -3 22 -30 35 -58z
m-969 -2 c-9 -17 -17 -23 -21 -15 -4 6 -3 11 3 11 5 0 13 15 17 33 5 20 9 26
11 15 3 -9 -2 -29 -10 -44z m73 23 c0 -39 -22 -73 -39 -62 -9 5 -11 19 -6 44
8 44 12 51 31 51 9 0 14 -11 14 -33z m375 -6 c8 -13 -31 -33 -57 -29 -27 4
-35 25 -11 31 32 8 62 7 68 -2z m923 -10 c3 -8 -1 -12 -9 -9 -7 2 -15 10 -17
17 -3 8 1 12 9 9 7 -2 15 -10 17 -17z m-426 -150 c14 -73 -1 -137 -42 -176
l-28 -27 0 94 c-1 81 -11 141 -37 213 -4 11 2 5 14 -13 30 -47 43 -109 39
-195 -4 -87 12 -90 32 -6 13 53 3 139 -25 219 -22 62 -17 63 11 3 14 -29 30
-79 36 -112z m-496 114 c55 21 72 12 19 -11 -48 -20 -119 -15 -123 8 -3 16 -1
16 28 1 29 -14 35 -14 76 2z m117 -12 c20 -6 22 -41 3 -65 -20 -28 -34 -21
-45 20 -16 54 -14 65 7 57 9 -4 25 -10 35 -12z m85 -91 c-4 -76 -32 -141 -99
-232 -49 -65 -44 -35 8 55 50 85 73 149 73 200 0 26 5 45 11 45 8 0 10 -22 7
-68z m58 -48 c-3 -34 -14 -84 -24 -111 -24 -63 -84 -154 -113 -172 -18 -10
-15 -4 12 30 32 42 25 41 -31 -6 -14 -11 -4 3 20 30 84 93 119 177 121 289 1
54 2 58 10 31 6 -16 8 -57 5 -91z m107 -20 c11 -57 15 -64 20 -42 4 14 5 48 2
75 -5 41 -4 44 6 23 15 -33 6 -148 -14 -185 l-16 -30 -1 50 c0 28 -9 90 -20
139 -11 50 -20 92 -19 95 2 17 30 -65 42 -125z m577 101 c0 -33 -86 -49 -110
-20 -11 13 -8 14 16 10 16 -3 40 1 54 9 33 19 40 19 40 1z m-980 -137 c-7 -65
-11 -121 -8 -123 7 -7 48 164 49 205 1 30 3 28 10 -15 7 -41 4 -67 -17 -145
-20 -72 -24 -107 -20 -150 l6 -55 -25 75 c-14 41 -26 93 -27 115 -2 44 35 242
41 224 2 -7 -2 -65 -9 -131z m-171 35 c-50 -100 -34 -214 40 -276 18 -15 27
-27 20 -27 -7 0 -31 20 -54 44 -79 82 -80 179 -3 289 30 42 29 32 -3 -30z m31
-5 c-24 -52 -26 -144 -5 -196 13 -33 13 -35 0 -17 -40 52 -42 142 -5 216 27
52 34 50 10 -3z m99 -13 c-7 -28 -10 -79 -6 -128 4 -60 3 -77 -5 -63 -20 36
-22 140 -3 195 21 64 30 61 14 -4z m211 9 c-6 -16 -29 -52 -50 -80 -21 -28
-44 -71 -51 -95 -17 -59 -30 -72 -23 -23 8 49 37 109 76 153 16 18 34 44 40
57 15 33 21 23 8 -12z m136 -88 c-10 -34 -30 -69 -57 -97 l-40 -44 31 48 c35
53 69 144 72 191 1 27 2 27 5 -7 2 -21 -3 -62 -11 -91z m-417 77 c-12 -21 -27
-42 -32 -48 -11 -11 9 29 31 63 24 37 25 25 1 -15z m1011 11 c0 -4 -21 -41
-47 -82 -30 -48 -63 -123 -90 -202 -39 -117 -43 -125 -72 -133 -39 -10 -65
-48 -59 -87 3 -20 0 -30 -8 -30 -22 0 -54 -42 -54 -70 0 -24 -10 -37 -68 -90
-21 -19 -24 -19 -45 -5 -43 30 -102 6 -126 -53 -8 -18 -23 -31 -44 -38 -30 -8
-32 -12 -30 -49 1 -22 4 -54 8 -71 6 -26 1 -40 -24 -74 -17 -24 -31 -48 -31
-55 0 -7 -21 -15 -51 -18 -57 -7 -89 -29 -89 -61 0 -22 -56 -86 -76 -86 -11 0
-24 51 -24 98 0 15 65 101 198 259 282 338 335 404 426 538 85 127 258 315
289 315 9 0 17 -3 17 -6z m157 -77 c62 -31 114 -61 117 -65 2 -4 -11 -18 -30
-31 -18 -13 -32 -27 -29 -31 3 -5 49 -23 103 -40 118 -39 157 -67 187 -134 60
-137 134 -408 215 -795 25 -118 24 -252 -3 -311 l-15 -35 -1 90 c-1 77 -5 96
-26 130 -31 51 -31 56 6 78 29 16 31 20 24 53 -8 43 -56 176 -61 171 -2 -2 7
-37 21 -77 14 -40 25 -80 25 -87 0 -8 -17 -29 -37 -48 -40 -37 -41 -32 7 -115
11 -19 20 -53 20 -75 l0 -40 -18 30 c-11 17 -27 36 -36 44 -25 21 -62 99 -70
146 -6 34 -2 51 23 99 36 67 38 91 12 106 -25 13 -81 13 -81 0 0 -5 8 -10 18
-10 11 0 27 -9 36 -19 17 -19 17 -21 -8 -64 -18 -30 -26 -58 -26 -90 0 -58 33
-148 70 -190 15 -18 32 -41 38 -52 39 -75 13 -287 -43 -354 -56 -65 -12 -45
75 36 85 78 127 168 153 325 12 70 14 73 38 70 19 -2 31 4 43 22 52 80 78 -31
30 -127 -63 -125 -138 -224 -268 -353 -175 -174 -355 -290 -569 -369 l-76 -27
-50 53 c-41 45 -47 55 -33 61 9 3 68 22 131 43 187 59 313 134 430 254 71 72
101 137 101 218 0 163 -119 290 -253 269 -36 -6 -37 -6 -26 15 8 15 10 90 7
253 -6 305 -22 350 -31 85 -11 -321 -51 -462 -146 -516 -26 -14 -74 -43 -109
-64 -35 -22 -64 -39 -66 -39 -2 0 -11 18 -21 40 l-18 41 40 42 c63 66 73 86
73 147 0 116 -45 190 -114 190 -46 0 -80 -31 -73 -67 3 -16 -3 -33 -17 -50
-22 -25 -22 -25 -46 -5 l-24 19 22 28 c25 31 28 62 10 99 -13 29 -59 46 -125
46 -38 0 -42 2 -45 27 -2 19 -14 34 -39 48 -20 11 -34 26 -32 33 3 7 0 25 -5
41 -9 26 -7 33 26 65 79 77 92 92 92 106 0 17 34 51 70 70 33 17 40 29 40 66
0 29 24 64 35 52 3 -3 -8 -63 -24 -134 -34 -148 -64 -304 -59 -309 2 -1 33 17
70 42 80 53 100 88 122 218 22 122 18 149 -5 47 -27 -116 -54 -176 -101 -218
-22 -19 -42 -34 -44 -31 -5 4 48 289 67 359 l9 36 52 -13 c28 -8 54 -12 58
-10 4 2 12 30 19 62 20 87 68 215 103 269 28 44 28 47 6 32 -33 -22 -93 -138
-121 -235 -13 -46 -26 -85 -29 -88 -10 -11 -117 25 -113 38 2 7 11 42 19 78
22 90 58 194 89 254 31 62 86 137 95 133 4 -2 58 -29 119 -61z m-1170 -44 c-3
-10 -5 -2 -5 17 0 19 2 27 5 18 2 -10 2 -26 0 -35z m822 21 c-27 -33 -342
-175 -385 -173 -11 0 24 17 76 38 52 21 145 63 205 94 125 64 122 62 104 41z
m-150 -175 c-52 -55 -130 -142 -173 -192 -44 -51 -82 -93 -86 -95 -22 -9 -75
199 -55 216 6 5 39 19 75 31 78 27 267 109 295 128 47 32 31 6 -56 -88z
m-1410 72 c17 -11 6 -17 -48 -26 -51 -8 -191 3 -191 15 0 17 215 26 239 11z
m-46 -78 c-34 -2 -93 -2 -130 0 -37 2 -9 3 62 3 72 0 102 -1 68 -3z m1088 -7
c-14 -17 -141 -69 -149 -62 -2 3 17 15 44 26 27 11 63 27 79 34 38 19 40 19
26 2z m-1007 -24 c6 -10 -226 -23 -266 -15 -16 3 -28 9 -28 14 0 11 287 12
294 1z m725 -25 c-2 -1 -15 -11 -29 -22 l-25 -20 19 23 c11 12 24 22 29 22 6
0 8 -1 6 -3z m594 -58 c-26 -34 -102 -126 -168 -204 -66 -78 -178 -213 -250
-299 -77 -92 -131 -150 -133 -141 -2 9 27 48 63 88 37 39 144 164 238 277 187
225 287 340 294 340 2 0 -17 -28 -44 -61z m-1333 34 c0 -38 -15 -45 -117 -50
-130 -7 -153 -2 -153 37 l0 30 135 0 c122 0 135 -2 135 -17z m660 12 c0 -9
-128 -164 -179 -219 -25 -26 -37 -44 -26 -38 26 13 95 87 164 175 30 37 55 66
58 64 2 -3 -8 -30 -22 -62 -17 -36 -24 -66 -21 -81 5 -17 2 -24 -8 -24 -22 0
-36 -25 -38 -64 -1 -20 -5 -36 -9 -36 -4 0 -15 -7 -23 -16 -17 -17 -22 -89 -7
-99 5 -3 17 -26 27 -50 17 -45 17 -46 -6 -70 -16 -17 -24 -39 -26 -72 -1 -27
-12 -88 -24 -136 -39 -161 -27 -239 41 -269 35 -15 36 -18 44 -133 9 -120 19
-155 55 -190 26 -25 30 -36 30 -80 0 -29 7 -74 15 -101 8 -27 15 -52 15 -56 0
-12 -139 41 -230 88 -47 24 -115 67 -152 94 l-68 50 0 79 c0 44 14 178 31 298
21 148 34 286 39 428 4 116 11 221 14 235 3 14 -1 5 -9 -20 -10 -28 -17 -97
-19 -185 -3 -77 -11 -172 -19 -210 -18 -84 -66 -245 -74 -245 -3 0 -17 8 -31
19 -34 23 -117 51 -154 51 -26 0 -28 3 -28 39 0 33 5 43 30 61 17 12 30 29 30
38 0 9 14 37 31 62 71 106 141 234 175 322 72 185 97 216 249 298 106 58 125
66 125 55z m428 -201 l21 -41 -24 -23 -24 -22 -30 48 c-34 53 -66 131 -76 186
-6 33 -5 35 27 44 l33 10 26 -80 c14 -45 35 -100 47 -122z m-283 179 c-26 -62
-98 -261 -118 -328 -18 -60 -26 -75 -32 -62 -4 10 -2 35 5 56 9 28 9 43 1 59
-9 17 -8 22 9 27 19 6 24 19 21 60 -1 12 10 30 29 43 32 24 38 53 18 96 -9 22
-8 29 7 46 23 26 71 28 60 3z m41 -20 c-28 -95 -46 -340 -34 -452 l9 -85 -38
-32 c-43 -36 -57 -34 -81 10 -31 58 -40 96 -31 124 5 15 29 91 53 168 49 153
103 284 118 284 5 0 7 -8 4 -17z m88 -173 c13 -32 38 -78 55 -103 l30 -44 -24
-23 c-14 -13 -27 -21 -29 -19 -13 13 -66 130 -76 169 -15 54 -17 170 -5 190 7
11 12 -3 18 -48 4 -35 18 -90 31 -122z m-214 166 c0 -3 -4 -8 -10 -11 -5 -3
-10 -1 -10 4 0 6 5 11 10 11 6 0 10 -2 10 -4z m-963 -260 c5 -76 4 -90 -10
-98 -25 -13 -21 -44 8 -66 29 -23 37 -92 10 -92 -8 0 -30 -14 -50 -31 -32 -28
-35 -29 -41 -12 -9 25 -65 83 -75 77 -4 -2 -11 1 -15 7 -4 8 -3 9 4 5 16 -9
15 -4 -3 30 -27 52 -16 99 36 165 44 56 31 69 -19 19 -56 -57 -71 -107 -50
-167 16 -44 16 -44 -4 -26 -31 28 -48 68 -48 115 0 53 18 80 76 114 55 32 66
65 34 99 -12 13 -35 29 -51 35 -30 13 -38 34 -16 43 8 3 20 1 28 -4 23 -15 65
-10 90 10 l23 18 33 -76 c27 -60 35 -95 40 -165z m218 198 c-15 -82 -19 -85
-113 -82 l-84 3 -19 49 c-10 27 -16 53 -13 58 3 4 57 8 121 8 l115 0 -7 -36z
m735 6 c0 -5 -2 -10 -4 -10 -3 0 -8 5 -11 10 -3 6 -1 10 4 10 6 0 11 -4 11
-10z m830 -10 c0 -11 -7 -23 -15 -26 -8 -4 -15 -15 -15 -25 0 -10 -4 -19 -10
-19 -10 0 -14 21 -10 50 5 38 50 56 50 20z m-519 -151 c30 -38 37 -59 19 -59
-16 0 -68 78 -90 136 -29 79 -24 88 12 19 17 -33 44 -76 59 -96z m-316 122
c-7 -7 -21 -11 -29 -8 -27 11 -18 26 14 24 25 -2 27 -4 15 -16z m210 -228 c14
-25 25 -53 25 -62 0 -9 -18 -34 -39 -55 l-39 -38 -13 39 c-14 44 -17 205 -5
278 l9 50 18 -83 c10 -46 30 -104 44 -129z m-255 143 c0 -20 -24 -36 -39 -26
-8 4 -11 15 -8 24 8 20 47 21 47 2z m825 -15 c18 -37 5 -48 -30 -25 -25 16
-32 34 -18 47 14 15 33 6 48 -22z m-1495 -6 c0 -12 -17 -15 -94 -15 -87 0
-116 7 -99 24 3 3 48 6 100 6 76 0 93 -3 93 -15z m20 -45 c0 -6 -40 -10 -100
-10 -60 0 -100 4 -100 10 0 6 40 10 100 10 60 0 100 -4 100 -10z m1430 4 c0
-15 -22 -44 -31 -39 -11 7 7 45 21 45 6 0 10 -3 10 -6z m-849 -22 c-5 -9 -7
-29 -4 -44 3 -15 2 -36 -2 -45 -6 -16 -8 -15 -20 7 -8 14 -14 30 -15 37 0 25
20 63 35 63 12 0 13 -4 6 -18z m47 -3 c-2 -6 -8 -10 -13 -10 -5 0 -11 4 -13
10 -2 6 4 11 13 11 9 0 15 -5 13 -11z m-647 -31 c-11 -30 -47 -48 -98 -48
l-43 0 0 -85 c0 -69 -3 -85 -15 -85 -11 0 -15 11 -15 38 0 20 -3 74 -7 120
l-6 82 96 0 c96 0 96 0 88 -22z m639 -29 c0 -11 -4 -17 -10 -14 -5 3 -10 13
-10 21 0 8 5 14 10 14 6 0 10 -9 10 -21z m750 1 c0 -15 -7 -20 -25 -20 -27 0
-32 9 -13 28 18 18 38 14 38 -8z m-97 -11 c13 -22 -13 -65 -50 -82 -21 -9 -27
-8 -39 8 -20 27 -17 42 11 71 28 28 62 29 78 3z m-1509 -55 c4 -9 4 -19 1 -22
-6 -6 -35 18 -35 29 0 16 28 10 34 -7z m864 4 c-3 -7 -11 -13 -18 -13 -7 0
-15 6 -17 13 -3 7 4 12 17 12 13 0 20 -5 18 -12z m662 -30 c-48 -39 -61 -35
-20 7 18 19 38 31 43 28 6 -4 -4 -19 -23 -35z m-130 -8 c8 -15 6 -21 -10 -30
-13 -7 -20 -21 -20 -40 0 -33 -16 -41 -23 -12 -15 55 -17 75 -6 88 17 20 47
17 59 -6z m-530 -10 c0 -5 -4 -10 -10 -10 -5 0 -10 5 -10 10 0 6 5 10 10 10 6
0 10 -4 10 -10z m600 -25 c0 -8 -2 -15 -4 -15 -2 0 -6 7 -10 15 -3 8 -1 15 4
15 6 0 10 -7 10 -15z m-1185 -30 c0 -23 -10 -37 -50 -67 -57 -44 -99 -58 -170
-58 -68 0 -95 9 -95 30 0 22 27 30 108 30 73 0 91 8 143 62 42 45 64 46 64 3z
m1158 6 c5 -22 -1 -33 -14 -25 -12 7 -12 44 0 44 5 0 11 -9 14 -19z m-583 -6
c-13 -16 -40 -20 -40 -7 0 14 12 22 33 22 16 0 17 -3 7 -15z m-11 -93 c18 -48
19 -148 1 -189 -12 -27 -12 -36 0 -57 12 -24 11 -28 -10 -51 -32 -34 -56 -32
-76 7 -12 23 -15 48 -12 92 7 78 57 246 72 240 6 -2 18 -21 25 -42z m48 32 c2
-6 -5 -14 -17 -17 -15 -4 -20 0 -20 15 0 21 30 23 37 2z m503 3 c0 -1 -22 -25
-50 -52 -59 -58 -68 -47 -12 13 32 34 62 53 62 39z m65 -17 c4 -6 -5 -10 -20
-10 -15 0 -24 4 -20 10 3 6 12 10 20 10 8 0 17 -4 20 -10z m-1566 -15 c53 -27
47 -75 -10 -75 -35 0 -79 -16 -79 -30 0 -6 9 -6 26 0 49 19 57 14 51 -31 -6
-48 -31 -79 -63 -79 -81 0 -128 84 -89 160 16 30 39 47 84 61 39 11 49 10 80
-6z m1031 -15 c0 -5 -7 -10 -15 -10 -8 0 -15 5 -15 10 0 6 7 10 15 10 8 0 15
-4 15 -10z m550 -20 c10 -19 8 -20 -51 -20 -61 0 -62 0 -44 20 11 12 31 20 51
20 23 0 37 -6 44 -20z m-525 -8 c20 -15 14 -31 -15 -37 -49 -11 -71 17 -27 35
28 11 30 11 42 2z m-755 -111 c15 -135 51 -277 90 -349 79 -150 244 -293 475
-414 61 -32 106 -58 100 -58 -22 0 -216 101 -301 157 -213 141 -313 277 -358
486 -27 123 -40 304 -21 285 2 -2 9 -50 15 -107z m-124 85 l52 1 6 -59 c4 -32
4 -63 1 -69 -4 -6 -24 4 -48 24 -23 18 -64 46 -90 61 -38 23 -45 31 -36 42 8
9 20 11 38 6 14 -4 49 -7 77 -6z m192 -38 c-17 -25 -38 -35 -38 -17 0 12 29
38 44 39 5 0 2 -10 -6 -22z m742 -68 c7 -45 10 -83 8 -85 -3 -3 -10 28 -17 67
-7 40 -15 81 -18 92 -3 11 -1 16 5 12 5 -3 15 -42 22 -86z m550 75 c14 -8 54
-15 90 -16 l65 -2 -65 -7 c-89 -11 -430 -11 -455 0 -14 6 -3 9 40 10 33 0 71
7 85 15 17 10 56 14 120 14 64 0 103 -4 120 -14z m-643 -39 c-10 -26 -25 -18
-19 10 3 17 8 22 15 15 5 -5 7 -17 4 -25z m-910 -8 c71 -43 111 -123 98 -199
-7 -43 -16 -52 -39 -43 -10 4 -16 18 -16 38 0 17 -5 48 -11 69 -9 34 -18 42
-67 64 -31 14 -58 27 -59 27 -1 1 3 19 9 39 13 41 24 42 85 5z m953 15 c0 -10
3 -28 6 -40 5 -19 1 -22 -27 -25 -29 -2 -35 -8 -40 -33 l-6 -30 -7 28 c-9 32
6 57 35 57 14 0 19 7 19 30 0 17 5 30 10 30 6 0 10 -8 10 -17z m755 -25 c24
-23 -20 -28 -270 -28 -256 0 -286 3 -270 31 8 11 528 9 540 -3z m212 -33 c26
-18 46 -102 37 -151 -4 -20 -19 -45 -36 -59 -24 -20 -26 -25 -11 -25 16 -1 15
-3 -6 -20 -28 -24 -40 -25 -48 -4 -3 10 8 29 31 53 42 43 54 91 37 144 -12 35
-40 55 -61 42 -5 -3 -10 0 -10 9 0 27 36 33 67 11z m-809 -45 c-36 -30 -45
-23 -13 10 17 17 31 26 33 20 2 -6 -7 -19 -20 -30z m-1126 -16 c28 -15 35 -36
40 -124 4 -69 -19 -57 -70 34 -36 64 -46 76 -54 62 -7 -12 -1 -29 21 -63 40
-59 39 -66 -4 -46 -23 11 -36 25 -40 44 -9 39 -9 80 -1 106 6 19 10 20 44 11
20 -6 49 -16 64 -24z m1318 26 c0 -5 -24 -10 -54 -10 -30 0 -58 5 -61 10 -4 6
17 10 54 10 34 0 61 -4 61 -10z m360 0 c0 -6 -57 -10 -150 -10 -93 0 -150 4
-150 10 0 6 57 10 150 10 93 0 150 -4 150 -10z m-700 -10 c0 -5 -13 -10 -30
-10 -16 0 -30 5 -30 10 0 6 14 10 30 10 17 0 30 -4 30 -10z m-810 -10 c0 -5
-5 -10 -11 -10 -5 0 -7 5 -4 10 3 6 8 10 11 10 2 0 4 -4 4 -10z m921 -23 c34
-9 22 -29 -13 -22 -38 8 -48 16 -30 22 6 3 13 12 13 21 1 16 2 16 6 1 2 -10
13 -19 24 -22z m-764 -8 c-1 -3 13 -18 31 -34 54 -45 75 -98 80 -197 3 -55 1
-88 -6 -88 -16 0 -80 76 -106 128 -14 27 -34 83 -44 125 l-20 77 33 -3 c18 -1
33 -5 32 -8z m1023 4 c0 -3 -14 -38 -32 -76 -29 -63 -31 -71 -19 -100 48 -116
47 -108 17 -172 -35 -72 -31 -107 19 -177 20 -27 35 -52 32 -54 -2 -2 -22 12
-46 32 -53 46 -83 104 -84 166 -1 28 -4 43 -9 36 -25 -40 7 -142 58 -189 37
-34 84 -64 84 -54 0 5 9 0 21 -10 20 -19 20 -19 10 5 -5 14 -21 50 -35 80 -30
64 -33 114 -9 180 16 46 16 49 -5 112 -12 35 -22 71 -22 79 0 8 14 44 32 81
29 59 37 68 61 68 15 0 27 -4 27 -10 0 -5 -18 -37 -40 -71 -45 -71 -48 -89
-20 -150 25 -56 25 -90 -1 -140 -17 -34 -18 -46 -9 -73 6 -19 19 -41 30 -51
19 -17 19 -17 3 23 -15 40 -15 42 11 91 32 63 32 75 0 155 l-27 64 22 39 c11
21 31 57 43 81 l22 42 62 0 62 0 30 -47 c44 -69 67 -127 92 -236 41 -179 18
-289 -81 -382 -67 -63 -154 -100 -244 -104 -11 -1 -41 -4 -66 -7 -61 -8 -97
11 -150 78 -38 49 -89 138 -89 155 0 4 13 -12 29 -37 36 -57 60 -78 108 -96
61 -21 83 -16 33 8 -65 32 -134 107 -161 175 -35 88 -33 208 4 288 15 33 36
68 45 79 16 18 16 18 -4 8 -28 -15 -71 -79 -95 -143 -70 -182 -3 -389 161
-503 l25 -18 -35 7 c-82 16 -189 178 -210 319 -14 88 0 187 37 265 29 62 145
187 162 177 6 -4 11 -2 11 3 0 7 27 11 70 11 39 0 70 -3 70 -7z m349 -9 c10
-9 -35 -3 -49 6 -11 8 -7 9 15 4 17 -4 32 -8 34 -10z m196 -28 c0 -23 -5 -41
-12 -43 -7 -3 -13 2 -13 10 0 7 -9 22 -20 32 -19 17 -19 19 -2 31 30 24 47 13
47 -30z m-1499 18 c39 -19 64 -49 64 -78 0 -16 -3 -15 -22 9 -11 15 -39 40
-61 56 -44 32 -34 38 19 13z m609 -16 c7 -7 16 -24 20 -38 l7 -25 -30 28 c-32
31 -88 40 -103 16 -14 -22 -10 -67 10 -149 20 -78 24 -107 22 -152 -1 -38 -21
-36 -21 2 0 16 -9 67 -19 112 -36 156 -37 173 -6 204 23 23 32 26 67 21 22 -3
46 -11 53 -19z m814 -41 c-22 -17 -24 -18 -27 -3 -2 9 2 24 9 32 9 11 15 12
26 2 13 -10 12 -15 -8 -31z m-29 -82 c16 -33 37 -100 47 -149 14 -75 15 -101
5 -167 -17 -121 -78 -222 -166 -273 -62 -36 -79 -33 -22 5 87 58 146 150 166
259 20 113 -9 254 -75 364 -42 70 -43 77 -10 46 14 -14 39 -51 55 -85z m-799
54 c7 -14 5 -27 -6 -48 -20 -39 -41 -53 -31 -20 9 29 9 35 0 72 -5 23 -4 26
10 21 9 -4 21 -15 27 -25z m854 -8 c-3 -6 -11 -8 -17 -5 -6 4 -5 9 3 15 16 10
23 4 14 -10z m548 0 c80 -31 137 -124 137 -225 0 -95 -19 -114 -150 -150 -36
-10 -66 -26 -85 -46 -27 -28 -30 -38 -29 -91 l1 -60 -77 -39 c-88 -44 -271
-110 -306 -110 -46 0 -23 17 64 49 48 17 109 44 137 59 49 27 50 28 60 93 20
118 78 176 206 203 35 8 71 17 81 21 23 9 41 59 33 93 -13 62 -119 125 -211
126 l-52 1 19 26 c35 50 113 72 172 50z m-73 -117 c64 -19 120 -69 120 -107 0
-32 -6 -36 -81 -53 -109 -25 -173 -73 -221 -163 -19 -37 -38 -53 -113 -95 -49
-28 -107 -59 -129 -69 l-38 -18 20 35 c30 50 50 125 58 210 l6 72 47 30 c25
16 82 56 126 89 128 96 121 94 205 69z m-1233 -256 c-3 -8 -6 -5 -6 6 -1 11 2
17 5 13 3 -3 4 -12 1 -19z m1387 -39 c-32 -36 -146 -119 -155 -113 -14 8 -11
68 5 89 11 16 86 36 160 44 5 1 1 -9 -10 -20z m-766 -279 c41 0 72 -4 72 -10
0 -6 -121 -10 -342 -10 -222 0 -339 3 -332 10 10 10 311 19 449 13 44 -1 113
-3 153 -3z m139 -85 c34 -14 76 -71 66 -88 -3 -6 -12 2 -20 16 -30 59 -142 80
-188 37 -14 -13 -29 -38 -33 -54 l-8 -31 -207 -3 -207 -2 -17 41 c-12 32 -26
46 -57 60 -23 10 -53 19 -68 19 -29 0 -88 -44 -88 -66 0 -8 -9 -14 -20 -14
-40 0 -14 82 31 99 11 3 192 5 402 3 288 -3 390 -7 414 -17z m-729 -58 c-14
-13 -27 -30 -30 -37 -2 -8 -11 -11 -22 -7 -14 6 -15 10 -5 29 15 29 28 38 58
38 l24 0 -25 -23z m701 -11 c27 -29 22 -42 -21 -51 -36 -8 -58 12 -58 52 0 32
48 32 79 -1z m-627 -21 c6 -30 -5 -39 -38 -31 -28 7 -30 18 -8 40 23 23 41 20
46 -9z"/>
<path d="M2522 4553 c-52 -25 -84 -75 -89 -136 l-4 -52 20 55 c13 36 34 68 61
93 38 36 45 39 91 35 41 -2 47 -1 32 10 -23 17 -71 15 -111 -5z"/>
<path d="M2390 3740 c-100 -23 -153 -58 -148 -99 4 -37 46 -39 119 -6 68 30
107 28 178 -11 24 -13 45 -24 47 -24 3 0 -4 17 -15 38 -22 42 -83 102 -106
102 -7 0 -19 2 -27 4 -7 2 -29 0 -48 -4z"/>
<path d="M2316 3583 c-4 -9 -2 -21 4 -27 5 -5 10 -22 10 -37 0 -15 8 -36 18
-48 18 -22 82 -41 82 -23 0 5 -15 13 -32 17 l-33 7 50 14 c28 8 64 17 80 21
25 6 19 9 -37 14 -73 6 -84 11 -73 30 8 12 109 8 150 -7 13 -5 17 -4 10 3 -29
30 -138 43 -191 23 -24 -9 -26 -8 -21 10 6 24 -8 27 -17 3z"/>
<path d="M2891 3471 c-25 -25 -37 -69 -23 -83 6 -6 8 -24 5 -41 -8 -38 16 -33
35 7 12 23 11 31 -2 51 -15 23 -15 25 8 40 13 9 31 12 41 9 13 -5 16 -2 13 12
-5 27 -52 30 -77 5z"/>
<path d="M2943 3401 c2 -40 -3 -54 -22 -75 -14 -14 -20 -26 -13 -26 23 0 52
53 52 96 0 23 -4 45 -9 48 -5 3 -8 -16 -8 -43z"/>
<path d="M3267 2462 c-48 -50 -89 -193 -73 -256 12 -48 26 -26 26 39 0 71 28
170 61 217 26 36 20 36 -14 0z"/>
<path d="M3324 2415 c-29 -29 -48 -62 -59 -96 -18 -63 -19 -180 -1 -229 12
-33 13 -27 18 85 6 134 27 207 75 257 14 15 23 28 18 28 -5 0 -28 -20 -51 -45z"/>
<path d="M3317 1860 c-10 -94 -44 -213 -88 -312 -23 -49 -38 -92 -36 -95 11
-10 79 107 104 178 20 56 27 100 31 182 5 117 -1 143 -11 47z"/>
<path d="M1787 1971 c-4 -18 -7 -45 -6 -60 1 -17 4 -11 10 19 5 25 8 52 6 60
-2 8 -6 0 -10 -19z"/>
<path d="M1788 1580 c-10 -69 -20 -190 -22 -270 -5 -140 -5 -143 10 -100 14
43 40 420 32 473 -2 12 -11 -34 -20 -103z"/>
<path d="M1050 2246 c37 -62 37 -77 1 -129 -17 -23 -33 -55 -36 -72 -5 -27 -4
-28 7 -11 7 10 28 37 45 60 47 59 45 100 -7 157 l-41 44 31 -49z"/>
<path d="M1122 2145 c0 -16 2 -22 5 -12 2 9 2 23 0 30 -3 6 -5 -1 -5 -18z"/>
<path d="M2590 2035 c-7 -8 -9 -23 -5 -32 6 -16 8 -15 25 7 26 35 8 58 -20 25z"/>
<path d="M2836 1320 c13 -58 16 -231 5 -276 -11 -44 -40 -99 -47 -91 -3 2 3
23 11 47 9 27 14 74 14 129 l-2 86 -7 -78 c-14 -139 -84 -249 -200 -313 -63
-34 -64 -35 -25 -29 103 17 246 126 276 212 21 58 15 205 -10 278 -11 33 -18
49 -15 35z"/>
<path d="M3370 992 c-30 -31 -54 -99 -44 -126 10 -26 24 -18 24 14 0 32 15 71
43 113 24 35 13 35 -23 -1z"/>
<path d="M2812 4687 c-9 -10 -4 -12 21 -9 43 4 243 -47 353 -92 175 -69 381
-192 539 -319 109 -88 279 -265 351 -368 136 -190 272 -444 339 -629 37 -104
92 -336 106 -450 14 -117 6 -349 -16 -480 -14 -77 -74 -328 -100 -415 -3 -11
4 -1 15 23 66 142 111 368 119 597 6 179 6 179 13 85 20 -245 -34 -507 -185
-899 -51 -132 -28 -100 42 59 121 278 159 436 168 700 8 262 -31 509 -125 780
-17 47 -33 94 -37 105 -3 11 3 3 15 -18 59 -106 138 -431 161 -662 14 -142 7
-352 -16 -444 -8 -35 -14 -66 -11 -68 6 -7 34 123 45 217 39 312 -32 731 -166
982 -141 261 -339 568 -445 688 -220 250 -540 466 -821 556 -85 27 -296 74
-333 74 -12 0 -26 -6 -32 -13z"/>
<path d="M2168 4683 c7 -3 16 -2 19 1 4 3 -2 6 -13 5 -11 0 -14 -3 -6 -6z"/>
<path d="M2128 4673 c7 -3 16 -2 19 1 4 3 -2 6 -13 5 -11 0 -14 -3 -6 -6z"/>
<path d="M2000 4641 c-83 -28 -224 -90 -206 -91 5 0 50 16 100 36 50 21 120
47 156 60 36 12 58 23 50 23 -8 0 -53 -13 -100 -28z"/>
<path d="M1062 4230 c-383 -340 -640 -832 -718 -1375 -24 -162 -24 -460 -1
-610 49 -313 168 -620 345 -890 102 -156 184 -257 306 -378 305 -302 654 -512
990 -597 133 -34 283 -52 386 -48 89 4 68 11 -75 27 -417 47 -908 305 -1275
671 -205 205 -383 463 -499 727 -241 549 -205 1247 94 1832 113 221 264 430
449 619 60 61 107 112 104 112 -2 0 -50 -41 -106 -90z"/>
<path d="M1453 4082 c22 -24 21 -65 -1 -85 -10 -9 -55 -23 -99 -31 -102 -18
-142 -37 -192 -91 -44 -47 -56 -90 -48 -160 6 -55 -9 -50 -18 6 -11 65 11 125
67 182 35 35 48 57 48 77 0 16 -4 32 -10 35 -6 4 -10 -5 -10 -20 0 -18 -16
-43 -49 -78 -62 -67 -83 -109 -83 -167 0 -61 22 -102 76 -139 57 -39 91 -81
106 -128 6 -21 30 -75 52 -119 36 -74 39 -85 29 -119 -10 -36 -10 -37 10 -20
31 29 25 80 -21 155 -41 68 -56 117 -43 136 5 6 33 28 63 49 64 44 76 59 84
99 7 31 -20 102 -47 125 -23 19 -21 73 4 105 22 28 19 32 -12 16 -20 -11 -49
-60 -49 -84 0 -8 11 -28 25 -44 60 -71 54 -130 -17 -177 -41 -27 -41 -27 -35
-5 7 26 -11 72 -42 110 -29 36 -36 18 -11 -30 12 -23 20 -51 18 -63 -3 -20 -7
-17 -50 24 -45 42 -48 49 -48 95 0 76 60 161 135 188 11 4 56 14 99 22 86 15
126 40 126 79 0 28 -36 75 -57 75 -14 0 -14 -2 0 -18z"/>
<path d="M1537 4043 c8 -50 13 -55 13 -10 0 20 -4 38 -9 42 -6 3 -7 -10 -4
-32z"/>
<path d="M4076 4028 c4 -6 42 -57 84 -112 228 -298 392 -620 455 -891 13 -55
24 -91 24 -80 1 35 -38 182 -75 283 -44 120 -142 317 -220 442 -56 92 -260
370 -270 370 -3 0 -2 -5 2 -12z"/>
<path d="M3730 3921 c-53 -17 -91 -43 -130 -92 -38 -49 -70 -128 -70 -176 0
-31 23 -85 43 -102 21 -16 21 -5 2 29 -8 14 -14 50 -14 80 l0 55 13 -38 c8
-21 21 -46 30 -56 10 -11 16 -36 16 -67 0 -85 51 -142 165 -183 33 -13 66 -28
74 -34 32 -26 -25 55 -68 96 -43 41 -46 38 -9 -15 l19 -27 -38 15 c-51 21 -72
41 -94 89 -19 41 -25 85 -11 85 4 -1 18 -7 32 -15 37 -21 143 -19 188 4 70 36
122 113 122 181 0 35 -29 97 -57 122 -51 47 -148 69 -213 49z m128 -37 c78
-32 112 -91 98 -169 -19 -97 -149 -161 -255 -124 l-31 11 21 34 c11 19 16 34
10 34 -5 0 -15 -8 -20 -17 -6 -10 -11 -13 -11 -7 0 15 40 51 70 63 l25 10 -29
0 c-22 1 -40 -10 -72 -44 -40 -41 -44 -43 -54 -26 -24 45 -4 147 38 195 45 50
141 69 210 40z"/>
<path d="M3821 3794 c35 -39 40 -58 22 -84 -11 -15 -23 -20 -39 -17 -20 3 -22
2 -13 -9 14 -17 61 -18 77 -2 29 29 1 103 -51 129 -20 10 -19 9 4 -17z"/>
<path d="M1179 3489 c17 -22 33 -60 37 -84 5 -37 2 -51 -20 -87 -94 -158 -106
-215 -55 -273 40 -45 52 -45 28 2 -32 63 -19 133 45 237 53 87 49 166 -10 221
-43 40 -58 30 -25 -16z"/>
<path d="M666 3385 c-9 -26 -7 -32 5 -12 6 10 9 21 6 23 -2 3 -7 -2 -11 -11z"/>
<path d="M581 3124 c0 -11 3 -14 6 -6 3 7 2 16 -1 19 -3 4 -6 -2 -5 -13z"/>
<path d="M592 3000 c0 -14 2 -19 5 -12 2 6 2 18 0 25 -3 6 -5 1 -5 -13z"/>
<path d="M581 2944 c0 -11 3 -14 6 -6 3 7 2 16 -1 19 -3 4 -6 -2 -5 -13z"/>
<path d="M572 2900 c0 -14 2 -19 5 -12 2 6 2 18 0 25 -3 6 -5 1 -5 -13z"/>
<path d="M4643 2885 c0 -22 2 -30 4 -17 2 12 2 30 0 40 -3 9 -5 -1 -4 -23z"/>
<path d="M4653 2790 c0 -25 2 -35 4 -22 2 12 2 32 0 45 -2 12 -4 2 -4 -23z"/>
<path d="M573 2720 c0 -30 2 -43 4 -27 2 15 2 39 0 55 -2 15 -4 2 -4 -28z"/>
<path d="M4663 2670 c0 -36 2 -50 4 -32 2 17 2 47 0 65 -2 17 -4 3 -4 -33z"/>
<path d="M562 2635 c0 -16 2 -22 5 -12 2 9 2 23 0 30 -3 6 -5 -1 -5 -18z"/>
<path d="M4663 2455 c0 -27 2 -38 4 -22 2 15 2 37 0 50 -2 12 -4 0 -4 -28z"/>
<path d="M4652 2355 c0 -16 2 -22 5 -12 2 9 2 23 0 30 -3 6 -5 -1 -5 -18z"/>
<path d="M582 2330 c0 -19 2 -27 5 -17 2 9 2 25 0 35 -3 9 -5 1 -5 -18z"/>
<path d="M4642 2300 c0 -14 2 -19 5 -12 2 6 2 18 0 25 -3 6 -5 1 -5 -13z"/>
<path d="M592 2255 c0 -16 2 -22 5 -12 2 9 2 23 0 30 -3 6 -5 -1 -5 -18z"/>
<path d="M4631 2244 c0 -11 3 -14 6 -6 3 7 2 16 -1 19 -3 4 -6 -2 -5 -13z"/>
<path d="M602 2200 c0 -14 2 -19 5 -12 2 6 2 18 0 25 -3 6 -5 1 -5 -13z"/>
<path d="M615 2130 c5 -44 34 -144 40 -138 1 2 -8 44 -21 93 -15 55 -22 72
-19 45z"/>
<path d="M4551 2154 c0 -11 3 -14 6 -6 3 7 2 16 -1 19 -3 4 -6 -2 -5 -13z"/>
<path d="M4611 2154 c0 -11 3 -14 6 -6 3 7 2 16 -1 19 -3 4 -6 -2 -5 -13z"/>
<path d="M4601 2114 c0 -11 3 -14 6 -6 3 7 2 16 -1 19 -3 4 -6 -2 -5 -13z"/>
<path d="M4572 2023 c-15 -48 -8 -55 8 -8 7 20 10 38 8 41 -3 2 -10 -13 -16
-33z"/>
<path d="M4536 1925 c-9 -26 -7 -32 5 -12 6 10 9 21 6 23 -2 3 -7 -2 -11 -11z"/>
<path d="M4470 1777 c-288 -581 -626 -933 -1125 -1173 -197 -95 -343 -132
-609 -155 -155 -13 -349 -2 -521 32 -111 21 -324 86 -412 124 -29 13 -53 22
-53 19 0 -9 130 -63 237 -98 223 -72 443 -102 683 -93 227 8 428 48 634 126
297 113 479 232 699 460 184 191 335 416 431 641 24 58 56 131 70 164 45 98
24 71 -34 -47z"/>
<path d="M4406 1745 c-9 -26 -7 -32 5 -12 6 10 9 21 6 23 -2 3 -7 -2 -11 -11z"/>
<path d="M1330 1310 c6 -11 13 -20 16 -20 2 0 0 9 -6 20 -6 11 -13 20 -16 20
-2 0 0 -9 6 -20z"/>
<path d="M1366 1252 c10 -19 32 -48 47 -65 20 -23 18 -17 -9 23 -46 67 -64 87
-38 42z"/>
<path d="M1455 1130 c10 -11 20 -20 23 -20 3 0 -3 9 -13 20 -10 11 -20 20 -23
20 -3 0 3 -9 13 -20z"/>
</g>
</svg>