<!-- icon666.com - MILLIONS vector ICONS FREE --><svg id="Layer_1" enable-background="new 0 0 450 450" viewBox="0 0 450 450" xmlns="http://www.w3.org/2000/svg"><path d="m39.6 347.7c-.8 0-1.6-.2-2.4-.6-2-1.1-3-3.4-2.4-5.6 7.1-28.1 45.9-86.4 67.5-109.6 32.5-34.9 58-61.1 82.7-85.2.8-.8 2.7-2.6 5.5-5.3 15.5-15.1 62.5-61.1 98.5-95.3l25.7-25.7c10.1-10.1 23.5-15.6 37.8-15.6 14.3 0 27.7 5.5 37.8 15.6 2 2 2 5.1 0 7.1l-143.4 143.3c-.4.4-.8.7-1.3.9-16.9 8.3-136.8 101.4-154.1 123.1-.1.1-.2.2-.3.3l-48 51c-1 1-2.3 1.6-3.6 1.6zm312.9-333c-11.6 0-22.6 4.5-30.7 12.7l-25.8 25.8s-.1.1-.1.1c-35.9 34.2-83 80.1-98.4 95.2-2.8 2.7-4.7 4.6-5.5 5.4-24.6 23.9-50 50.1-82.4 84.8-15.3 16.4-40.6 52.7-55.1 80.8l29.3-31.1c18.6-23.1 136.3-114.4 156.6-125.2l139.1-139.1c-7.6-6.1-17.1-9.4-27-9.4z"></path><path d="m168.7 446.7c-1.3 0-2.6-.5-3.6-1.5-1.6-1.6-1.8-4.1-.6-6.1l36.8-59.6c.1-.1.1-.2.2-.3 16.5-22.3 75.3-162.3 79-180.7.1-.5.3-1.1.6-1.5l101.3-175.6c.7-1.1 1.8-2 3-2.3 1.3-.3 2.6-.2 3.8.5 25.5 14.7 34.3 47.5 19.6 73l-18.2 31.5c-23.8 43.7-56 101.1-66.6 119.9-1.9 3.3-3.1 5.6-3.7 6.5-16.8 30.1-35.6 61.5-60.8 102-16.8 26.9-63.1 79.5-88.3 93.6-.8.4-1.7.6-2.5.6zm41-61.7-22.5 36.4c23.4-21.3 51.9-55.1 63.8-74.1 25.2-40.3 43.9-71.6 60.6-101.5.5-.9 1.8-3.2 3.7-6.5 10.6-18.9 42.9-76.2 66.6-119.9 0 0 0-.1.1-.1l18.2-31.6c11.1-19.3 5.8-43.7-11.7-56.6l-98.3 170.3c-5.4 22.3-63.1 159.6-80.5 183.6z"></path></svg>