<!-- icon666.com - MILLIONS vector ICONS FREE --><svg id="Capa_1" enable-background="new 0 0 512 512" viewBox="0 0 512 512" xmlns="http://www.w3.org/2000/svg"><g><path d="m437.02 74.98c-48.353-48.351-112.64-74.98-181.02-74.98s-132.667 26.629-181.02 74.98c-48.351 48.353-74.98 112.64-74.98 181.02s26.629 132.667 74.98 181.02c48.353 48.351 112.64 74.98 181.02 74.98s132.667-26.629 181.02-74.98c48.351-48.353 74.98-112.64 74.98-181.02s-26.629-132.667-74.98-181.02zm-10.607 351.433c-45.519 45.519-106.039 70.587-170.413 70.587s-124.894-25.068-170.413-70.587-70.587-106.039-70.587-170.413 25.068-124.894 70.587-170.413 106.039-70.587 170.413-70.587 124.894 25.068 170.413 70.587 70.587 106.039 70.587 170.413-25.068 124.894-70.587 170.413z"></path><path d="m414.346 97.654c-42.295-42.296-98.531-65.59-158.346-65.59-53.614 0-105.515 19.298-146.143 54.338-3.137 2.705-3.486 7.441-.781 10.578 2.705 3.136 7.44 3.486 10.578.781 37.906-32.692 86.327-50.697 136.346-50.697 54.912 0 104.933 21.304 142.262 56.067l-83.323 83.323c2.979-5.556 4.674-11.899 4.674-18.632 0-4.142-3.358-7.5-7.5-7.5h-32.58v-27.631c4.981-5.58 8.016-12.932 8.016-20.983v-8.016c0-4.142-3.358-7.5-7.5-7.5h-48.097c-4.142 0-7.5 3.358-7.5 7.5v8.016c0 8.051 3.035 15.404 8.017 20.984v27.629h-32.581c-4.142 0-7.5 3.358-7.5 7.5 0 21.816 17.749 39.564 39.564 39.564h16.548v45.506l-12.54 12.54-47.49-47.489c-6.857-6.858-16.685-8.812-25.645-5.102-8.961 3.711-14.527 12.042-14.527 21.741v60.372c0 6.562-2.555 12.73-7.195 17.37l-10.582 10.583c-2.929 2.929-2.929 7.678 0 10.606 1.464 1.465 3.384 2.197 5.303 2.197s3.839-.732 5.303-2.197l10.582-10.582c7.473-7.473 11.588-17.408 11.588-27.977v-60.372c0-5.29 4.032-7.371 5.267-7.883 1.236-.511 5.558-1.891 9.298 1.85l47.49 47.489-122.221 122.225c-34.763-37.329-56.067-87.35-56.067-142.262 0-50.019 18.005-98.44 50.698-136.347 2.705-3.137 2.355-7.873-.781-10.578-3.137-2.705-7.872-2.355-10.578.781-35.041 40.629-54.339 92.53-54.339 146.144 0 59.815 23.293 116.051 65.589 158.346 42.295 42.296 98.531 65.589 158.346 65.589 53.614 0 105.515-19.298 146.144-54.338 3.137-2.705 3.486-7.441.781-10.578-2.706-3.137-7.441-3.487-10.578-.781-37.906 32.692-86.328 50.697-136.347 50.697-54.912 0-104.933-21.304-142.262-56.067l134.763-134.762v14.474h-.516c-8.556 0-15.516 6.96-15.516 15.516v17.271c-18.24 3.516-32.064 19.591-32.064 38.842v16.032c0 12.976 10.557 23.533 23.532 23.533h64.129c12.976 0 23.532-10.557 23.532-23.533v-16.032c0-19.251-13.824-35.327-32.064-38.842v-17.271c0-8.556-6.96-15.516-15.516-15.516h-.517v-29.474l145.369-145.369c34.763 37.329 56.067 87.351 56.067 142.262 0 50.019-18.004 98.441-50.697 136.347-2.705 3.137-2.355 7.873.781 10.578 1.417 1.222 3.16 1.82 4.895 1.82 2.106 0 4.2-.882 5.683-2.602 35.04-40.628 54.338-92.53 54.338-146.144 0-59.813-23.294-116.049-65.59-158.344zm-117.749 262.555v16.032c0 4.705-3.828 8.533-8.532 8.533h-64.129c-4.705 0-8.532-3.828-8.532-8.533v-16.032c0-13.545 11.02-24.564 24.564-24.564h32.064c13.545 0 24.565 11.02 24.565 24.564zm-32.065-56.112v16.548h-17.064v-16.548c0-.285.231-.516.516-.516h16.032c.285 0 .516.231.516.516zm-25.08-192.904h33.097v.516c0 9.125-7.423 16.549-16.548 16.549s-16.548-7.424-16.548-16.549v-.516zm8.016 30.883c2.716.764 5.575 1.182 8.532 1.182s5.817-.418 8.533-1.182v18.247h-17.064v-18.247zm-38.91 33.247h94.885c-3.177 9.889-12.463 17.064-23.394 17.064h-48.097c-10.931 0-20.217-7.176-23.394-17.064zm54.942 32.064h16.548c6.733 0 13.076-1.695 18.632-4.674l-35.18 35.18z"></path></g></svg>