<?xml version="1.0" standalone="no"?>
<!DOCTYPE svg PUBLIC "-//W3C//DTD SVG 20010904//EN"
 "http://www.w3.org/TR/2001/REC-SVG-20010904/DTD/svg10.dtd">
<svg version="1.0" xmlns="http://www.w3.org/2000/svg"
 width="512.000000pt" height="512.000000pt" viewBox="0 0 512.000000 512.000000"
 preserveAspectRatio="xMidYMid meet">
<metadata>
Created by potrace 1.16, written by Peter Selinger 2001-2019
</metadata>
<g transform="translate(0.000000,512.000000) scale(0.100000,-0.100000)"
fill="#000000" stroke="none">
<path d="M1889 4776 c-111 -42 -212 -113 -258 -182 -36 -56 -38 -72 -11 -107
l20 -26 -27 1 c-65 2 -131 -40 -164 -104 -44 -86 -10 -186 82 -244 59 -37 48
-58 -18 -34 l-28 10 29 -25 c34 -31 70 -30 74 1 3 20 6 21 36 12 123 -38 232
101 166 210 -15 24 -26 32 -47 31 l-28 -1 31 -9 c56 -16 72 -99 31 -160 -53
-79 -170 -75 -258 10 -50 48 -55 64 -50 136 8 95 94 156 214 151 60 -3 68 -6
92 -35 20 -23 35 -31 60 -31 36 0 42 -5 159 -140 59 -69 119 -173 131 -228 4
-19 7 -61 7 -95 l0 -62 29 33 c25 28 29 40 29 92 0 33 -4 60 -10 60 -5 0 -6 7
-3 17 4 10 2 14 -4 10 -5 -4 -15 5 -22 19 -8 18 -8 23 0 18 8 -4 8 0 0 15 -7
11 -17 21 -23 21 -6 0 -8 3 -5 6 4 4 -16 35 -43 70 -28 35 -47 64 -44 64 4 0
48 -19 98 -43 60 -29 103 -57 127 -84 80 -89 131 -256 112 -368 -12 -70 -9
-83 6 -28 16 56 13 110 -8 196 -37 144 -87 215 -206 292 -45 29 -98 72 -118
96 -78 97 -127 159 -127 163 0 2 33 -18 72 -44 40 -27 75 -46 78 -43 3 3 -6
13 -20 22 -55 36 -144 107 -147 116 -2 6 10 21 27 33 l30 22 11 -47 c13 -51
18 -56 198 -215 145 -129 220 -239 256 -378 17 -66 18 -225 1 -262 -6 -13 -4
-18 9 -18 9 0 30 -13 46 -29 24 -24 29 -38 29 -78 0 -58 -22 -95 -81 -135 -56
-37 -125 -38 -88 -1 32 32 -26 92 -72 78 -27 -9 -23 -25 5 -25 32 0 48 -22 40
-54 -5 -21 -2 -27 19 -35 25 -10 47 -38 47 -60 0 -7 -44 -11 -128 -11 l-129 0
5 30 c5 34 16 38 31 13 5 -10 13 -14 17 -10 15 14 -12 41 -54 55 -80 26 -132
101 -132 188 0 67 17 115 61 174 46 59 22 53 -35 -11 -50 -55 -66 -96 -66
-172 0 -84 35 -155 96 -198 31 -21 44 -37 44 -53 0 -22 -5 -24 -87 -30 -49 -4
-98 -10 -110 -13 -32 -7 -38 -38 -14 -69 12 -15 21 -33 21 -40 0 -25 60 -82
110 -103 58 -25 68 -41 46 -73 -31 -44 -21 -80 35 -131 l52 -47 -5 -107 c-9
-183 -49 -257 -180 -324 -46 -25 -104 -66 -136 -97 -48 -46 -57 -51 -69 -39
-12 11 -12 19 -4 35 22 41 128 125 209 164 114 55 108 80 -11 39 -71 -25 -150
-76 -207 -135 -24 -25 -48 -46 -53 -46 -4 0 -26 14 -47 32 -21 18 -49 32 -62
33 -32 0 -111 89 -103 115 3 10 1 21 -4 24 -14 9 -70 -16 -109 -49 -18 -15
-35 -25 -39 -22 -6 7 38 53 82 84 l30 21 -24 26 -25 26 31 29 c80 72 100 190
50 288 -31 60 -66 83 -126 83 -45 0 -60 -13 -34 -30 14 -8 7 -9 -32 -5 -27 3
-43 2 -35 -1 25 -11 50 -36 50 -51 0 -39 -251 -105 -323 -85 l-28 7 51 38 c61
46 64 71 16 125 -59 65 -57 101 9 187 43 57 41 75 -21 130 -62 56 -61 89 5
178 l49 66 -49 -36 c-89 -63 -113 -119 -84 -189 19 -46 13 -54 -23 -27 -63 46
-63 105 1 172 l32 34 -38 -28 c-96 -71 -86 -171 21 -219 l40 -18 -25 -55 c-31
-67 -27 -117 11 -168 30 -38 31 -52 11 -79 -8 -11 -15 -31 -15 -46 0 -14 -9
-33 -20 -43 -25 -21 -25 -33 -2 -46 10 -5 24 -32 31 -60 16 -63 59 -123 111
-156 l40 -25 0 -169 c0 -155 -2 -169 -20 -186 -26 -23 -26 -57 0 -80 26 -23
69 -11 81 23 7 19 3 29 -21 54 l-30 30 0 159 c0 96 4 159 10 159 25 0 80 -36
89 -59 6 -14 15 -196 21 -408 9 -319 8 -388 -3 -415 -8 -18 -11 -42 -7 -53 5
-13 -1 -25 -18 -40 -49 -42 -18 -118 49 -118 33 0 79 39 79 67 0 20 -40 66
-57 66 -13 0 -13 3 -3 15 11 13 10 21 -1 43 -11 21 -15 108 -17 420 l-3 392
30 0 c35 0 46 -21 17 -35 -14 -7 -21 -20 -21 -40 0 -41 26 -44 78 -9 l41 27
46 -26 c34 -19 44 -31 42 -46 -2 -13 13 -40 39 -71 43 -51 43 -51 26 -78 -10
-15 -26 -42 -35 -61 -16 -32 -16 -34 2 -45 10 -6 39 -28 65 -48 l48 -37 -25
-73 c-29 -89 -26 -160 11 -241 47 -102 135 -174 243 -197 27 -6 71 -23 99 -38
40 -22 55 -38 80 -86 24 -46 44 -69 88 -99 l58 -39 -41 -45 c-48 -52 -70 -98
-70 -148 0 -47 12 -68 71 -132 27 -28 49 -59 49 -68 0 -24 -90 -116 -130 -133
-19 -8 -51 -26 -70 -41 -31 -24 -39 -26 -75 -18 -22 5 -179 10 -350 12 -170 1
-426 8 -569 14 -142 7 -260 10 -263 7 -16 -16 162 -44 301 -47 l51 -1 -60 -9
c-68 -10 -109 -25 -126 -45 -10 -12 9 -14 123 -14 74 0 210 6 303 14 248 21
400 27 488 19 l79 -8 -44 -31 c-25 -17 -62 -34 -84 -38 -93 -17 -148 -64 -111
-94 25 -20 115 -44 247 -65 123 -19 175 -21 565 -22 536 0 760 22 836 84 l23
18 -25 16 c-30 20 -132 41 -294 62 -66 9 -122 20 -123 25 -2 6 -25 24 -50 42
-26 17 -64 47 -85 65 -21 19 -68 48 -104 65 -71 34 -123 91 -123 136 0 14 15
41 34 62 18 20 38 46 44 56 6 10 12 17 14 14 3 -3 25 -34 50 -70 62 -88 141
-160 213 -196 53 -25 71 -29 151 -29 84 0 95 2 166 38 128 63 220 186 248 334
19 95 9 243 -22 331 -33 93 -90 188 -165 277 l-59 69 32 28 c66 58 87 130 103
362 9 126 12 141 34 165 13 14 36 52 50 83 20 44 34 61 64 77 50 25 65 44 61
73 -4 30 -42 47 -130 61 l-70 11 4 47 c11 109 105 237 216 291 59 29 76 33
147 33 62 0 89 -5 120 -22 173 -92 248 -278 248 -618 0 -196 -30 -451 -68
-570 -3 -11 5 4 19 33 32 67 89 244 111 342 25 113 32 385 12 481 -38 182
-145 332 -286 401 -53 27 -78 33 -151 36 -99 5 -171 -11 -259 -59 -39 -21 -49
-23 -37 -10 31 35 132 80 204 93 236 40 457 -135 531 -422 11 -41 20 -66 20
-54 1 37 -37 171 -65 225 -93 185 -246 289 -425 289 -129 0 -236 -48 -335
-152 -67 -69 -113 -150 -139 -244 -31 -114 -30 -112 -93 -119 -108 -11 -122
-15 -138 -40 -15 -23 -15 -27 0 -50 9 -13 29 -31 45 -40 40 -20 69 -60 77
-104 3 -20 12 -46 20 -58 10 -16 11 -35 3 -85 -20 -132 -37 -151 -95 -106 -26
21 -27 21 -20 3 44 -113 46 -264 6 -348 -42 -88 -173 -211 -280 -261 -41 -20
-37 -16 87 74 174 126 239 273 199 451 -32 144 -96 236 -228 329 -38 27 -64
51 -58 55 5 3 10 25 10 48 0 41 -16 78 -89 212 -27 50 -32 68 -28 105 6 52 42
90 87 90 106 0 149 104 100 245 -32 92 -28 107 40 175 65 65 72 79 16 29 -40
-34 -56 -31 -56 10 0 37 15 48 94 71 97 27 153 59 201 112 54 60 74 123 56
182 -7 23 -13 46 -13 53 -1 7 -5 10 -10 7 -4 -3 -3 -15 3 -26 6 -11 9 -45 7
-74 -9 -106 -80 -170 -248 -224 -69 -22 -105 -38 -114 -53 -21 -33 -13 -184
15 -269 28 -88 21 -146 -22 -183 -18 -15 -43 -25 -61 -25 -47 0 -95 -28 -113
-66 -17 -35 -18 -124 -2 -124 5 0 7 -7 3 -15 -3 -8 15 -56 39 -107 71 -144 63
-168 -42 -128 -40 16 -73 27 -73 25 0 -1 54 -35 120 -75 138 -84 197 -132 242
-199 l31 -46 -52 57 c-64 70 -147 127 -249 168 -79 33 -108 62 -156 157 -22
44 -39 167 -33 232 5 48 11 59 46 92 34 30 41 43 41 73 0 20 -5 45 -12 55 -18
29 -3 49 54 75 29 12 65 35 80 50 l27 27 4 -28 c2 -15 5 -3 6 28 0 37 6 61 16
69 19 16 19 34 0 53 -10 11 -51 17 -140 22 -122 7 -125 8 -131 32 -4 13 -5 25
-3 27 2 1 26 15 52 30 102 58 128 209 49 280 -19 17 -21 26 -16 90 10 117 -31
264 -107 393 -37 62 -109 138 -242 256 -125 112 -133 135 -92 250 17 47 17 49
-2 75 -17 23 -28 27 -74 29 -30 1 -70 -4 -90 -11z m54 -46 c-117 -41 -216
-111 -278 -195 -8 -11 -15 -15 -15 -9 0 17 57 86 103 122 49 39 105 70 162 88
63 20 86 15 28 -6z m-3 -42 c-14 -6 -47 -22 -74 -35 -35 -17 -45 -19 -36 -8
20 24 81 54 110 54 l25 0 -25 -11z m-85 -238 c22 -23 25 -30 12 -30 -21 0 -60
37 -52 50 8 13 8 14 40 -20z m490 -1140 c51 -6 42 -7 -60 -8 -66 0 -129 3
-140 8 -25 11 114 11 200 0z m-1335 -30 c0 -10 -4 -22 -10 -25 -6 -4 -10 7
-10 25 0 18 4 29 10 25 6 -3 10 -15 10 -25z m1625 -11 c-38 -8 -680 -9 -720 0
-16 3 146 6 360 7 215 0 377 -3 360 -7z m-35 -47 c0 -5 -11 -19 -24 -31 -34
-32 -153 -44 -371 -39 -175 5 -224 15 -238 52 -6 14 31 16 306 19 172 1 315 3
320 5 4 1 7 -2 7 -6z m-130 -112 c0 -6 -72 -10 -196 -10 -127 0 -193 3 -189
10 4 6 80 10 196 10 119 0 189 -4 189 -10z m-25 -60 c4 -7 -52 -10 -160 -10
-108 0 -164 3 -160 10 4 6 68 10 160 10 92 0 156 -4 160 -10z m1103 -51 c-120
-63 -194 -145 -247 -271 -13 -30 -27 -48 -37 -48 -21 0 -14 34 28 120 52 106
157 195 266 225 74 21 72 17 -10 -26z m-1114 -10 c19 -17 -4 -36 -50 -43 -85
-11 -239 -7 -259 8 -23 17 -14 43 17 48 38 7 282 -4 292 -13z m-1018 -80 c8
-16 13 -53 13 -86 -1 -49 -3 -53 -8 -23 l-7 35 -6 -38 c-4 -20 -17 -51 -29
-68 -27 -38 -101 -71 -148 -67 l-36 3 35 16 35 16 -64 6 c-36 4 -75 14 -87 22
-31 20 -74 67 -74 81 0 6 38 19 85 29 98 20 189 60 224 99 27 29 41 24 67 -25z
m994 11 c-14 -4 -74 -8 -135 -7 l-110 1 90 6 c139 10 185 10 155 0z m-38 -100
l-4 -50 -88 0 -88 0 -4 50 -3 50 95 0 95 0 -3 -50z m-969 -98 c-27 -37 -91
-78 -133 -86 -26 -5 -20 -1 24 18 63 27 102 58 112 88 3 11 8 17 12 14 3 -4
-3 -19 -15 -34z m967 -22 l0 -51 -87 3 -88 3 -3 48 -3 47 90 0 91 0 0 -50z
m244 4 c3 -8 2 -12 -4 -9 -6 3 -10 10 -10 16 0 14 7 11 14 -7z m668 -49 c16
-4 25 -11 22 -16 -6 -10 -97 -13 -107 -3 -3 3 -1 19 5 35 l10 30 22 -20 c11
-11 33 -23 48 -26z m-902 -29 c0 -2 3 -11 6 -20 5 -14 -8 -16 -105 -16 -61 0
-111 2 -111 4 0 31 15 36 111 36 54 0 99 -2 99 -4z m-1010 -56 c0 -9 -9 -25
-20 -35 -25 -22 -26 -9 -2 18 16 19 15 18 -25 -2 -54 -27 -83 -27 -83 -2 0 22
8 29 65 53 37 15 41 15 53 0 6 -9 12 -23 12 -32z m1935 19 c5 -5 -14 -9 -47
-9 -39 0 -60 5 -69 16 -12 14 -7 15 46 9 33 -4 64 -11 70 -16z m-155 2 c0 -5
-7 -11 -15 -15 -20 -7 -19 -24 3 -29 11 -3 9 -5 -8 -6 -39 -1 -102 19 -97 32
7 21 117 38 117 18z m268 -12 c18 -6 29 -15 26 -20 -5 -9 -114 -13 -114 -5 0
35 33 44 88 25z m-1018 -25 c0 -15 -11 -16 -92 -10 -50 3 -104 6 -120 6 -15 0
-28 5 -28 10 0 6 47 10 120 10 105 0 120 -2 120 -16z m695 -24 c33 -7 121 -18
195 -25 l135 -12 -96 -2 c-146 -2 -339 37 -339 69 0 6 9 5 23 -4 12 -8 49 -20
82 -26z m1002 3 c-3 -10 -5 -4 -5 12 0 17 2 24 5 18 2 -7 2 -21 0 -30z m-615
5 c-8 -8 -51 -13 -125 -14 l-112 -2 113 8 c63 4 116 11 119 14 4 3 9 6 12 6 3
0 -1 -6 -7 -12z m-274 -5 c-10 -2 -26 -2 -35 0 -10 3 -2 5 17 5 19 0 27 -2 18
-5z m-858 -24 l35 -1 -28 -8 c-16 -5 -77 -12 -135 -16 l-107 -7 20 23 c19 21
25 22 100 16 44 -3 96 -6 115 -7z m1757 -196 c-2 -37 -3 -9 -3 62 0 72 1 102
3 68 2 -34 2 -93 0 -130z m-2647 122 c13 -14 20 -25 16 -25 -12 0 -56 32 -56
41 0 16 16 10 40 -16z m1009 9 c2 -2 -54 -4 -126 -4 -71 0 -158 -3 -192 -6
-41 -5 -61 -3 -61 4 0 7 29 13 73 15 76 4 299 -3 306 -9z m857 -19 c-13 -10
-17 -21 -12 -38 5 -23 2 -25 -37 -31 -23 -3 -64 -2 -92 3 -40 7 -43 9 -17 10
31 1 45 22 22 36 -25 16 -4 24 68 28 42 1 79 4 82 5 3 1 -3 -5 -14 -13z m-851
-30 c106 -22 239 -92 323 -171 40 -36 72 -70 72 -76 0 -5 -4 -7 -9 -3 -5 3
-12 1 -15 -4 -4 -5 8 -21 26 -35 18 -14 30 -28 26 -31 -3 -3 -38 25 -77 63
-50 49 -97 82 -154 111 -129 64 -186 76 -372 75 -145 0 -167 -2 -231 -26 -136
-48 -232 -131 -296 -254 -20 -39 -41 -65 -59 -73 -61 -27 -87 -147 -49 -226
59 -122 267 -233 467 -249 37 -3 59 -3 48 0 -11 3 -42 13 -70 22 -49 16 -50
16 -20 23 17 4 48 8 70 9 40 2 39 2 -20 16 -76 19 -135 53 -175 104 -34 43
-70 133 -70 177 -1 24 -3 22 -19 -17 -20 -52 -43 -90 -53 -90 -4 0 -10 11 -14
24 -6 25 -6 25 -27 5 -25 -23 -60 -25 -81 -3 -23 22 -20 24 14 11 38 -14 59
-3 78 43 l13 33 -26 -17 c-56 -37 -74 13 -28 80 14 21 44 74 65 116 46 90 86
129 183 174 94 45 187 64 322 64 206 0 353 -51 471 -163 34 -33 62 -66 62 -74
0 -8 -4 -11 -10 -8 -15 9 -12 -105 3 -135 7 -14 20 -26 29 -28 18 -3 42 32 35
51 -3 7 -9 1 -14 -12 -11 -28 -20 -19 -23 24 -4 59 0 85 13 85 19 0 37 -44 37
-89 0 -39 -34 -96 -50 -86 -5 3 -17 -11 -27 -32 l-17 -38 -6 80 c-4 44 -17
106 -29 137 -45 117 -168 214 -308 243 -98 21 -121 17 -33 -6 218 -56 322
-171 323 -359 0 -89 -18 -138 -71 -193 -48 -50 -100 -77 -192 -99 l-75 -18 70
3 c63 3 67 2 40 -9 -45 -19 -120 -34 -225 -43 l-95 -8 145 -1 c82 -1 178 5
220 12 80 14 93 14 63 -2 -33 -18 -184 -34 -313 -34 -155 0 -269 15 -385 51
-324 101 -413 275 -276 538 80 153 219 284 335 318 122 36 341 45 461 20z
m-889 -71 c16 -24 16 -26 -2 -42 -10 -10 -18 -16 -16 -13 1 2 -7 15 -19 27
-23 24 -20 54 5 54 9 0 23 -12 32 -26z m1717 4 c-5 -10 -89 -9 -123 1 -15 4 6
7 52 7 42 -1 74 -4 71 -8z m-1614 -71 c47 -43 47 -53 0 -107 -20 -24 -27 -27
-19 -12 14 30 8 37 -19 22 -30 -16 -44 -3 -37 33 l6 31 -25 -24 c-14 -13 -25
-20 -25 -15 0 15 64 115 71 113 4 -2 25 -20 48 -41z m1591 -5 c0 -73 -20 -310
-28 -331 -4 -12 -7 26 -5 86 2 107 2 107 -8 38 -15 -108 -28 -146 -64 -182
-25 -25 -42 -33 -68 -33 -19 0 -39 6 -45 13 -6 7 -11 55 -11 110 0 95 0 97 23
97 13 0 29 -7 36 -15 7 -8 18 -15 25 -15 16 0 35 81 35 144 0 24 3 63 6 87 l6
44 49 -3 49 -4 0 -36z m-2155 -32 c0 -8 -10 -16 -22 -18 -22 -3 -32 16 -16 32
12 11 38 2 38 -14z m2019 -47 c-8 -68 -19 -93 -41 -93 -15 0 -15 2 1 19 9 10
22 43 28 75 7 31 14 56 16 56 2 0 0 -26 -4 -57z m953 -5 c-2 -13 -4 -3 -4 22
0 25 2 35 4 23 2 -13 2 -33 0 -45z m-10 -60 c-3 -7 -5 -2 -5 12 0 14 2 19 5
13 2 -7 2 -19 0 -25z m-932 -328 c-3 -5 -14 -10 -23 -9 -14 0 -13 2 3 9 27 11
27 11 20 0z m-60 -10 c13 -5 14 -9 5 -9 -8 0 -24 4 -35 9 -13 5 -14 9 -5 9 8
0 24 -4 35 -9z m1 -59 c7 -9 40 -50 74 -91 205 -250 224 -537 48 -714 -65 -65
-131 -90 -217 -84 -102 7 -182 65 -288 206 -30 40 -85 107 -123 150 l-69 77
40 36 c21 20 51 62 65 94 16 35 37 63 55 73 16 9 56 33 89 51 73 42 170 127
210 186 28 41 32 43 68 38 20 -4 42 -13 48 -22z m-1816 -127 c7 -8 -16 -39
-32 -42 -9 -2 -23 4 -32 14 -24 23 -2 48 33 39 14 -4 28 -9 31 -11z m1230
-160 c0 -19 -57 -94 -75 -98 -28 -8 -160 -7 -180 0 -15 6 -55 73 -55 94 0 6
54 10 155 10 85 0 155 -3 155 -6z m-35 -149 c-19 -9 -68 -14 -132 -15 -145 0
-142 19 4 23 65 1 127 3 138 4 14 1 11 -3 -10 -12z m1 -63 c18 -24 8 -32 -39
-33 l-42 0 54 -17 c30 -10 56 -23 58 -29 7 -19 -66 -33 -177 -33 -111 0 -152
12 -158 43 -5 26 26 57 56 57 23 0 24 1 9 13 -14 10 4 12 105 14 103 1 124 -1
134 -15z m72 -160 c6 -39 -30 -47 -213 -47 -147 0 -175 3 -198 18 -15 9 -27
25 -27 35 0 16 18 17 217 16 212 -1 218 -2 221 -22z m-89 -109 c-8 -9 -27 -25
-44 -36 l-30 -19 28 6 c15 4 27 2 27 -3 0 -25 -165 -30 -196 -6 -18 14 -16 15
21 10 l40 -5 -39 15 c-43 16 -66 33 -66 46 0 5 61 9 136 9 126 0 135 -1 123
-17z m-3 -109 c3 -13 12 -29 20 -35 27 -22 -6 -29 -143 -29 l-132 0 22 43 22
42 103 1 c99 1 103 0 108 -22z m79 -94 c15 -12 15 -14 -2 -24 -22 -13 -263
-21 -338 -11 -53 6 -54 7 -40 28 14 21 20 22 189 21 131 0 179 -4 191 -14z
m-370 -71 c52 -11 315 -10 380 0 28 5 52 6 55 2 3 -3 19 -13 35 -21 93 -48
-45 -120 -229 -120 -93 0 -250 41 -338 88 -47 24 -66 49 -30 38 84 -26 428
-39 480 -19 14 5 -30 7 -115 5 -150 -5 -290 11 -320 35 -17 13 -16 14 12 7 17
-3 48 -10 70 -15z m615 -94 c0 -11 -87 -47 -158 -66 -100 -26 -298 -35 -417
-20 -113 15 -209 39 -232 58 -17 13 -17 14 3 8 165 -45 393 -57 567 -30 62 9
132 25 157 35 44 18 80 25 80 15z m31 -82 c-69 -47 -346 -79 -559 -63 -137 11
-298 40 -330 60 -15 10 -15 11 3 5 39 -13 179 -35 294 -46 176 -16 401 5 531
49 61 21 94 19 61 -5z"/>
<path d="M2140 2222 c-123 -32 -230 -114 -230 -176 0 -33 15 -56 36 -56 10 0
9 6 -1 27 -15 29 -10 49 6 22 4 -9 22 -22 39 -29 l31 -13 -31 -18 c-39 -24
-40 -68 -4 -121 26 -36 93 -78 128 -78 28 0 94 38 101 59 3 11 15 31 26 45 17
22 28 26 73 26 120 0 223 -68 313 -206 7 -10 4 4 -6 33 -54 150 -214 281 -406
334 -44 11 -87 28 -96 36 -48 41 44 102 185 123 50 7 49 8 -24 8 -41 1 -104
-7 -140 -16z m55 -344 c14 -13 -6 -46 -35 -58 -16 -7 -41 -9 -55 -6 -26 7 -50
40 -42 59 5 13 120 17 132 5z"/>
<path d="M3156 4744 c-27 -8 -61 -23 -75 -32 -45 -28 -131 -103 -131 -115 0
-6 10 -1 23 11 66 62 219 98 290 69 46 -20 71 -68 58 -113 -8 -30 -11 -31 -46
-18 -11 3 2 -8 28 -25 56 -36 75 -32 101 23 62 131 -87 252 -248 200z"/>
<path d="M3108 4556 c-84 -23 -157 -89 -187 -169 -6 -16 -10 -52 -10 -80 2
-52 2 -52 9 14 7 74 31 120 87 170 52 45 98 62 178 62 49 1 61 3 40 8 -44 10
-65 9 -117 -5z"/>
<path d="M3109 4515 c-55 -18 -137 -87 -155 -132 -18 -42 -18 -107 0 -142 21
-41 79 -88 149 -121 96 -47 116 -72 128 -155 l8 -50 -3 57 c-3 73 -33 114
-127 174 -109 70 -134 134 -84 220 67 114 222 121 264 11 12 -32 11 -40 -5
-74 -51 -103 -181 -111 -204 -13 -7 32 -8 32 -9 8 -1 -17 10 -40 27 -59 57
-64 175 -46 238 37 39 51 44 126 12 173 -46 67 -147 95 -239 66z"/>
<path d="M2732 4364 c-2 -80 15 -140 54 -191 32 -42 65 -59 154 -77 113 -24
178 -70 195 -139 6 -20 -1 -34 -33 -69 -21 -24 -44 -53 -51 -65 -15 -29 -14
-80 2 -89 6 -4 9 -4 5 1 -11 12 19 74 57 116 39 43 50 76 40 117 -17 72 -87
123 -215 156 -138 36 -188 95 -200 236 l-7 75 -1 -71z"/>
<path d="M1596 4359 c-35 -27 -56 -70 -56 -112 0 -76 125 -141 198 -103 17 9
34 21 38 28 4 6 -3 4 -17 -5 -32 -23 -106 -22 -143 2 -73 48 -74 144 -3 183
12 7 42 15 67 19 l45 6 -51 2 c-38 1 -58 -4 -78 -20z"/>
<path d="M2580 4257 c-18 -14 -50 -58 -50 -68 0 -4 15 8 34 27 36 36 78 44
119 23 22 -12 22 -12 3 10 -22 24 -81 29 -106 8z"/>
<path d="M2920 4241 c0 -6 4 -13 10 -16 6 -3 7 1 4 9 -7 18 -14 21 -14 7z"/>
<path d="M2955 4190 c10 -11 20 -20 23 -20 3 0 -3 9 -13 20 -10 11 -20 20 -23
20 -3 0 3 -9 13 -20z"/>
<path d="M2576 4118 c-34 -49 -14 -90 59 -122 70 -31 95 -58 95 -99 0 -42 -30
-71 -93 -93 -59 -20 -73 -53 -36 -89 13 -13 35 -26 49 -30 21 -6 19 -3 -10 17
-57 39 -51 80 13 92 35 7 91 57 101 92 13 42 -10 72 -83 109 -69 34 -94 65
-76 94 10 16 56 13 76 -5 17 -16 39 -12 39 7 0 5 -9 18 -20 29 -29 29 -94 27
-114 -2z"/>
<path d="M1255 4098 c-15 -12 -34 -36 -41 -54 -16 -37 -18 -112 -5 -132 5 -8
6 7 3 36 -13 135 112 196 205 100 18 -18 37 -46 43 -62 10 -28 9 -27 -29 11
-21 23 -53 44 -70 48 -73 16 -131 -26 -131 -94 l0 -36 19 31 c37 60 127 66
197 12 41 -32 52 -48 64 -90 23 -83 -35 -175 -130 -209 -32 -11 -53 -27 -73
-57 -16 -23 -34 -42 -42 -42 -7 0 -21 -20 -31 -45 -16 -44 -16 -47 5 -101 11
-31 21 -71 21 -89 0 -19 5 -37 10 -40 17 -11 11 52 -10 107 -33 87 -24 131 30
142 22 4 34 14 41 35 8 23 19 31 55 40 65 16 128 83 149 155 20 69 10 130 -38
226 -56 114 -170 165 -242 108z"/>
<path d="M2527 4083 c-4 -3 -7 -24 -7 -46 0 -31 7 -46 34 -73 29 -29 41 -34
81 -34 28 0 44 4 40 10 -3 6 -23 10 -43 10 -21 0 -47 7 -59 15 -25 17 -44 74
-36 105 5 20 2 25 -10 13z"/>
<path d="M2867 4032 c-37 -40 -7 -102 49 -102 31 0 74 37 74 64 0 51 -87 77
-123 38z m101 -34 c3 -22 -2 -30 -22 -39 -31 -14 -56 2 -56 36 0 30 9 36 45
33 24 -2 31 -8 33 -30z"/>
<path d="M1175 3990 c-8 -37 1 -83 27 -134 19 -37 19 -38 1 -31 -42 17 -112
18 -138 1 -66 -43 -87 -149 -41 -203 31 -35 43 -24 28 26 -18 58 -15 78 17
113 29 32 30 32 129 34 111 2 152 18 152 59 0 24 -12 37 -44 49 -19 6 -19 6
-3 -12 24 -26 21 -51 -8 -64 -51 -23 -109 54 -108 145 1 54 -3 59 -12 17z"/>
<path d="M1429 3905 c35 -38 41 -51 41 -87 0 -25 -8 -57 -20 -76 -28 -45 -25
-51 10 -17 55 52 49 149 -11 199 -52 44 -66 31 -20 -19z"/>
<path d="M3074 3911 c-41 -25 -71 -65 -86 -114 -11 -37 -10 -44 15 -89 15 -26
27 -59 27 -72 0 -26 -41 -66 -69 -66 -35 -1 -122 -38 -175 -75 -57 -39 -63
-49 -80 -140 -4 -26 -2 -24 14 12 18 37 83 104 135 139 12 7 52 25 90 39 112
40 138 90 95 180 -19 39 -19 45 -6 90 8 26 30 63 47 81 38 39 36 41 -7 15z"/>
<path d="M1597 3845 c-10 -77 -44 -152 -93 -201 -25 -25 -30 -33 -14 -23 66
42 125 165 118 246 -3 33 -4 30 -11 -22z"/>
<path d="M2141 3824 c-79 -68 -113 -182 -76 -253 17 -34 70 -81 91 -81 12 0
12 4 -1 30 -16 31 -9 39 14 18 8 -7 1 9 -14 35 -33 58 -31 108 9 168 29 44 22
51 -17 15 -37 -35 -60 -85 -60 -134 0 -26 -4 -38 -9 -30 -13 21 -9 96 6 133 8
19 36 57 62 85 55 59 54 64 -5 14z"/>
<path d="M1095 3735 c-20 -19 -25 -34 -25 -75 0 -56 -10 -81 -47 -121 -26 -29
-39 -83 -29 -125 4 -15 30 -49 57 -76 28 -27 49 -56 49 -69 0 -12 -21 -41 -50
-69 -37 -36 -50 -56 -50 -77 0 -39 23 -69 73 -94 52 -26 77 -48 77 -66 0 -7
-24 -25 -52 -38 l-53 -25 46 5 c57 5 99 24 99 43 0 32 -37 74 -87 98 -84 39
-95 83 -35 135 76 66 83 117 23 182 -21 23 -41 49 -44 57 -4 12 -6 12 -6 1 -1
-8 6 -23 16 -33 9 -10 11 -18 6 -18 -19 0 -43 48 -43 85 0 29 8 44 40 75 38
37 40 43 40 98 0 47 4 63 21 78 41 37 128 15 144 -37 8 -23 -11 -59 -30 -59
-8 0 -15 -4 -15 -10 0 -17 39 -11 60 10 56 56 -22 150 -125 150 -25 0 -44 -8
-60 -25z m-4 -382 c13 -16 12 -17 -3 -4 -10 7 -18 15 -18 17 0 8 8 3 21 -13z"/>
<path d="M2688 3673 c7 -3 16 -2 19 1 4 3 -2 6 -13 5 -11 0 -14 -3 -6 -6z"/>
<path d="M2403 3642 c25 -27 21 -62 -10 -94 l-27 -28 26 0 c33 0 65 27 74 62
4 21 0 33 -20 52 -14 15 -33 26 -42 26 -16 0 -16 -1 -1 -18z"/>
<path d="M1140 3636 c0 -9 -13 -40 -30 -69 -43 -77 -40 -100 20 -156 47 -44
50 -50 50 -97 0 -29 -7 -59 -16 -72 -15 -22 -15 -22 29 -22 30 0 53 -7 72 -22
30 -23 64 -90 65 -125 0 -31 18 -29 26 1 13 51 -43 138 -111 174 -15 8 -20 22
-21 54 -2 59 -25 101 -76 135 -48 32 -59 65 -33 98 15 19 15 19 9 -7 -6 -27
10 -68 26 -68 6 0 5 9 -2 20 -10 16 -10 26 1 52 22 54 25 93 7 107 -14 11 -16
11 -16 -3z"/>
<path d="M2740 3632 c19 -40 5 -65 -52 -92 -59 -28 -85 -59 -93 -110 l-5 -35
11 30 c16 42 57 83 90 90 41 9 79 43 79 70 0 12 -9 33 -21 46 l-20 24 11 -23z"/>
<path d="M939 3553 c-13 -16 -12 -17 4 -4 9 7 17 15 17 17 0 8 -8 3 -21 -13z"/>
<path d="M2686 3428 c-18 -25 -21 -74 -6 -83 6 -4 7 6 4 24 -4 20 -1 39 10 56
20 31 13 33 -8 3z"/>
<path d="M1336 3189 c23 -25 45 -55 48 -67 4 -11 19 -28 34 -38 l27 -18 -28
35 c-16 19 -38 49 -50 68 -12 19 -33 41 -47 50 -18 11 -13 2 16 -30z"/>
<path d="M1163 3188 c38 -60 8 -113 -62 -106 -21 2 -37 0 -35 -4 3 -5 25 -8
50 -8 86 0 125 77 62 122 l-33 23 18 -27z"/>
<path d="M1067 2889 c-38 -4 -72 -11 -75 -15 -10 -10 118 3 148 15 29 11 20
11 -73 0z"/>
</g>
</svg>