<?xml version="1.0" standalone="no"?>
<!DOCTYPE svg PUBLIC "-//W3C//DTD SVG 20010904//EN"
 "http://www.w3.org/TR/2001/REC-SVG-20010904/DTD/svg10.dtd">
<svg version="1.0" xmlns="http://www.w3.org/2000/svg"
 width="512.000000pt" height="512.000000pt" viewBox="0 0 512.000000 512.000000"
 preserveAspectRatio="xMidYMid meet">
<metadata>
Created by potrace 1.16, written by Peter Selinger 2001-2019
</metadata>
<g transform="translate(0.000000,512.000000) scale(0.100000,-0.100000)"
fill="#000000" stroke="none">
<path d="M3499 4713 c-9 -10 -35 -34 -58 -54 -27 -24 -41 -44 -41 -61 0 -32
-41 -70 -80 -74 -17 -2 -37 -7 -43 -11 -7 -4 -33 -8 -59 -8 -49 0 -94 -24
-113 -62 -15 -28 -36 -48 -75 -68 -19 -10 -64 -44 -99 -76 -35 -33 -68 -59
-72 -59 -5 0 -9 13 -9 28 0 29 38 90 79 126 15 14 21 31 21 62 0 83 -76 109
-325 108 -178 -1 -234 -11 -264 -51 -33 -41 -27 -85 19 -138 38 -44 65 -109
58 -143 -2 -12 -22 -20 -70 -28 -80 -13 -98 -26 -98 -70 0 -27 6 -36 30 -49
16 -8 38 -28 47 -43 10 -15 26 -33 35 -40 10 -7 18 -26 18 -41 0 -16 10 -37
24 -50 54 -50 42 -144 -27 -221 -26 -28 -58 -76 -73 -105 -24 -50 -26 -62 -20
-127 4 -40 7 -96 6 -124 -1 -43 3 -54 29 -76 27 -25 30 -33 36 -122 9 -115 1
-211 -30 -360 -33 -160 -53 -207 -97 -231 -40 -21 -68 -61 -68 -97 -1 -22 -1
-22 -12 -3 -6 11 -15 22 -19 25 -5 3 -9 99 -9 213 -1 176 1 209 14 223 12 11
16 35 16 84 0 38 5 72 10 75 16 10 11 57 -8 79 -10 12 -28 58 -40 103 -44 170
-112 305 -212 424 -30 35 -30 36 -15 73 23 54 -3 116 -47 116 -12 0 -20 9 -24
28 -3 15 -11 34 -17 43 -13 17 -100 59 -123 59 -10 0 -14 13 -14 44 0 92 -48
177 -127 223 -114 66 -291 6 -352 -121 -41 -84 -19 -203 49 -260 30 -25 84
-47 158 -66 34 -9 42 -15 42 -34 0 -13 9 -34 19 -48 11 -13 21 -40 23 -59 2
-25 10 -37 29 -46 15 -7 30 -24 33 -38 4 -14 17 -30 31 -35 50 -19 166 -103
209 -151 51 -57 106 -160 106 -198 0 -14 -7 -35 -15 -45 -19 -25 -19 -70 -1
-85 17 -14 15 -239 -4 -451 -11 -127 -14 -137 -41 -165 -36 -38 -37 -69 -4
-99 19 -17 25 -33 25 -63 0 -118 52 -247 128 -321 l50 -47 3 -80 4 -80 -50
-16 c-28 -9 -65 -24 -83 -33 -28 -15 -35 -15 -60 -2 -31 16 -74 60 -92 94 -43
85 -62 243 -49 417 14 186 12 181 75 221 41 26 54 40 54 59 0 29 -34 55 -71
55 -46 0 -52 46 -13 93 17 20 24 40 23 61 -2 17 3 49 10 70 45 132 -66 324
-213 370 -33 11 -61 26 -67 38 -18 34 -72 49 -145 42 -73 -8 -105 3 -123 43
-32 69 20 167 79 148 26 -8 26 -25 0 -32 -23 -6 -27 -28 -5 -37 24 -9 45 4 52
32 4 19 1 30 -17 44 -85 69 -203 -81 -143 -183 26 -44 68 -59 171 -59 98 0
130 -13 57 -24 -85 -11 -155 -63 -191 -141 -79 -169 67 -321 218 -226 25 16
49 27 52 24 14 -14 4 -40 -17 -50 -12 -6 -31 -27 -42 -47 -16 -30 -18 -40 -7
-56 10 -17 9 -21 -11 -31 -33 -17 -67 -51 -67 -66 0 -23 51 -14 90 17 21 17
41 30 44 30 3 0 6 -13 6 -30 0 -28 -3 -30 -37 -30 -114 0 -141 -104 -32 -124
64 -11 73 -32 63 -133 -5 -49 -9 -167 -8 -263 1 -146 4 -188 22 -254 69 -250
203 -450 373 -551 35 -21 87 -60 116 -86 28 -27 72 -58 97 -71 25 -12 46 -27
46 -33 0 -7 -27 -38 -60 -71 -33 -32 -60 -67 -60 -76 0 -10 -7 -18 -17 -18
-10 0 -41 -13 -69 -30 -38 -21 -57 -41 -73 -73 -12 -24 -21 -50 -21 -58 0 -8
-13 -23 -30 -32 -16 -10 -33 -29 -36 -43 -18 -70 94 -128 329 -170 296 -52
881 -40 1137 23 94 23 185 66 206 98 16 25 16 30 3 54 -8 14 -29 35 -46 46
-18 11 -35 32 -38 46 -10 45 -63 97 -131 129 -35 17 -64 36 -64 43 0 7 -23 34
-50 61 -28 27 -50 54 -50 61 0 7 22 27 50 44 71 44 124 95 170 163 28 43 53
67 83 81 73 36 177 152 231 258 58 116 77 206 80 367 1 114 3 123 24 138 31
22 29 67 -4 91 -31 23 -41 85 -29 178 8 64 47 118 102 141 39 17 57 47 50 83
-4 23 1 29 45 51 139 68 182 235 86 336 -16 17 -42 58 -57 90 -28 60 -75 109
-134 141 -24 14 -55 18 -127 18 -87 0 -100 -3 -149 -30 -58 -32 -116 -99 -126
-145 -5 -21 -15 -32 -40 -40 -19 -6 -47 -27 -64 -45 -85 -97 -59 -263 50 -323
35 -19 47 -31 42 -42 -3 -8 -7 -28 -7 -45 -1 -24 5 -33 31 -46 18 -9 40 -23
50 -30 47 -39 79 -200 50 -255 -8 -16 -25 -37 -36 -46 -29 -24 -27 -62 5 -87
25 -19 26 -26 25 -103 -1 -126 -46 -263 -102 -314 -20 -18 -22 -17 -114 59
l-34 28 6 112 c5 99 3 120 -17 177 -28 84 -77 164 -134 220 -25 24 -46 49 -46
55 0 6 14 24 30 40 24 23 30 37 30 72 0 35 -6 48 -35 78 -20 19 -47 38 -60 41
-28 7 -34 25 -66 179 -31 152 -44 320 -31 419 10 78 15 91 43 117 28 27 31 34
26 72 -4 27 -1 51 8 67 20 36 18 108 -5 159 -11 24 -44 76 -73 115 -49 67 -52
73 -55 140 -3 67 -2 73 27 104 17 18 31 41 31 50 0 15 72 97 113 130 22 17 22
65 0 85 -10 8 -29 17 -43 19 -25 3 -24 3 12 31 26 20 59 32 114 42 54 9 82 19
93 33 15 19 41 27 126 39 42 5 85 36 85 60 0 15 110 143 122 143 17 0 93 84
90 99 -6 26 -64 81 -87 81 -11 0 -28 -8 -36 -17z m40 -59 c-20 -22 -25 -23
-38 -10 -13 14 -13 18 3 35 15 16 23 18 38 10 20 -11 19 -11 -3 -35z m-79 -91
c0 -13 -16 -41 -36 -63 -29 -32 -39 -38 -51 -29 -11 10 -7 19 27 52 26 26 40
49 40 66 0 20 2 23 10 11 5 -8 10 -25 10 -37z m-705 -43 c54 -5 29 -7 -110 -9
-99 -1 -191 -4 -205 -8 -14 -3 -22 -2 -17 3 18 19 204 27 332 14z m135 -56 c8
-8 6 -16 -7 -31 -16 -17 -27 -19 -113 -14 -52 3 -138 4 -190 1 -88 -5 -83 -5
78 -11 95 -4 175 -9 177 -11 2 -2 -7 -26 -20 -53 -14 -26 -25 -55 -25 -62 0
-11 -11 -13 -52 -9 -29 3 -87 2 -128 -3 l-75 -8 112 -2 c125 -1 143 -5 143
-32 0 -18 -9 -19 -150 -19 l-150 0 0 48 c0 55 -26 117 -64 151 -37 34 -34 59
7 64 68 9 446 2 457 -9z m462 -39 c11 -20 11 -20 -11 0 -13 11 -28 29 -33 40
-11 20 -11 20 11 0 13 -11 28 -29 33 -40z m-143 0 c29 -33 41 -65 24 -65 -5 0
-16 14 -26 31 -9 17 -26 33 -37 36 -21 5 -25 15 -13 26 12 12 21 7 52 -28z
m100 -5 c18 -33 20 -40 7 -40 -12 0 -46 56 -46 76 0 16 20 -3 39 -36z m-42 -8
c18 -44 1 -40 -20 4 -12 24 -14 35 -5 32 7 -3 18 -19 25 -36z m-102 -62 c9
-32 2 -25 -20 20 -13 27 -14 32 -2 20 8 -8 18 -26 22 -40z m23 30 c7 -11 8
-20 2 -20 -5 0 -14 9 -20 20 -6 11 -7 20 -3 20 5 0 14 -9 21 -20z m-51 -56
c-9 -9 -28 6 -21 18 4 6 10 6 17 -1 6 -6 8 -13 4 -17z m-107 -26 c0 -6 -7 -5
-15 2 -8 7 -15 17 -15 22 0 6 7 5 15 -2 8 -7 15 -17 15 -22z m-1545 -68 c11
-5 16 -9 11 -9 -6 -1 4 -16 22 -33 40 -42 62 -96 62 -152 0 -38 -6 -52 -42
-93 -22 -26 -49 -65 -58 -85 l-17 -38 -23 25 c-13 14 -34 25 -47 25 -65 0
-146 70 -159 135 -17 95 40 184 142 220 44 16 80 18 109 5z m78 -48 c39 -39
68 -111 66 -161 -1 -23 -2 -22 -11 9 -27 100 -36 118 -70 152 -21 21 -34 38
-30 38 4 0 25 -17 45 -38z m1395 -28 c66 -19 -10 -25 -311 -27 -253 -2 -327 1
-327 10 0 26 81 32 380 27 129 -2 245 -7 258 -10z m-94 -50 c36 -5 46 -11 46
-25 0 -34 -33 -39 -269 -39 -226 0 -230 0 -245 22 -23 32 -20 36 22 41 65 7
397 7 446 1z m4 -88 c2 -3 2 -12 -2 -21 -5 -13 -33 -15 -218 -13 -190 3 -213
5 -216 20 -2 11 5 18 25 22 34 6 404 -2 411 -8z m-1188 -63 c-1 -5 -23 -21
-51 -38 -28 -16 -60 -46 -72 -65 l-21 -35 43 39 c52 46 124 80 151 71 11 -4
20 -10 20 -15 0 -5 -31 -29 -68 -53 -37 -24 -86 -62 -108 -83 -38 -37 -41 -38
-57 -21 -22 22 -21 40 3 85 23 44 44 69 84 100 27 21 76 31 76 15z m1140 -13
c0 -13 -320 -13 -340 0 -10 6 44 10 163 10 111 0 177 -4 177 -10z m-17 -50
c-5 -19 -14 -20 -149 -20 -79 0 -144 2 -144 4 0 2 -3 11 -6 20 -5 14 12 16
149 16 150 0 155 -1 150 -20z m-1006 -17 c2 -5 -27 -28 -63 -49 -37 -21 -95
-65 -128 -96 -33 -32 -62 -56 -64 -53 -21 21 88 136 175 183 58 32 74 35 80
15z m993 -62 c0 -21 3 -53 6 -70 l7 -31 -95 0 c-52 0 -123 3 -157 6 -52 6 -61
10 -55 23 3 9 9 37 11 64 l6 47 138 0 139 0 0 -39z m-930 5 c0 -3 -21 -12 -47
-20 -27 -9 -83 -36 -125 -60 -85 -49 -105 -46 -33 4 62 43 145 80 178 80 15 0
27 -2 27 -4z m0 -50 c0 -8 -10 -18 -21 -21 -31 -10 -130 -70 -183 -110 -49
-37 -66 -43 -66 -22 0 24 64 75 150 121 89 48 120 56 120 32z m17 -129 c72
-74 124 -153 162 -245 29 -69 57 -170 49 -178 -3 -2 -11 22 -18 53 -26 121
-104 255 -203 352 -83 81 -84 53 -1 -33 57 -59 84 -97 123 -178 28 -57 57
-131 65 -165 l14 -63 -58 0 -58 0 -6 34 c-19 103 -118 236 -230 310 -57 38
-72 53 -62 63 16 16 197 -134 255 -212 l22 -30 -22 42 c-28 52 -97 123 -171
176 -32 22 -58 43 -58 46 0 9 113 91 126 91 6 0 38 -28 71 -63z m951 41 c6
-13 21 -38 33 -56 l22 -34 -236 4 c-129 2 -239 6 -243 10 -4 4 11 28 32 52
l39 44 171 1 c168 1 171 1 182 -21z m66 -108 c16 -16 -81 -22 -292 -19 -201 4
-230 7 -219 26 7 11 500 4 511 -7z m-244 -49 c118 0 228 1 244 2 16 1 31 -3
33 -9 5 -14 -58 -25 -71 -13 -17 15 -27 10 -17 -9 5 -9 7 -31 3 -47 -5 -27 -3
-29 11 -17 19 16 69 12 75 -6 3 -10 -13 -12 -70 -10 -67 3 -73 5 -76 26 -3 18
1 22 23 22 35 0 28 24 -8 28 -23 3 -30 -2 -43 -35 -20 -46 -29 -53 -76 -53
-30 0 -41 6 -55 26 -16 25 -16 28 0 55 9 16 12 29 7 29 -17 0 -32 -42 -28 -76
3 -27 1 -33 -10 -29 -7 3 -16 5 -18 5 -2 0 -4 15 -4 33 0 57 -33 78 -73 46
-34 -26 -77 -26 -77 1 0 16 -5 19 -30 14 -24 -5 -30 -3 -30 11 0 15 6 17 38
12 20 -4 134 -6 252 -6z m-204 -81 c24 0 34 -5 34 -15 0 -12 -13 -15 -60 -15
-60 0 -60 0 -60 29 0 36 20 46 39 20 9 -12 26 -19 47 -19z m99 29 c4 -5 4 -21
1 -35 -5 -19 -12 -25 -29 -22 -12 2 -23 11 -25 21 -7 33 37 63 53 36z m395 1
c0 -5 -17 -9 -37 -9 l-38 2 35 7 c19 4 36 8 38 9 1 0 2 -3 2 -9z m-40 -99 c0
-24 -500 -25 -524 -1 -7 7 88 10 257 10 151 0 267 -4 267 -9z m24 -50 c3 -4
-1 -17 -9 -27 -12 -18 -31 -19 -253 -22 -205 -3 -244 -1 -271 12 -31 16 -37
27 -24 39 10 10 551 8 557 -2z m-468 -108 c10 -47 12 -49 13 -15 1 21 6 32 15
32 21 0 29 -80 24 -254 -3 -133 -2 -144 11 -114 10 26 12 70 8 199 l-6 166 63
6 c34 3 88 3 119 0 l57 -6 1 -191 c0 -105 4 -200 9 -211 5 -12 9 65 9 193 1
162 4 212 14 212 9 0 12 -46 13 -192 1 -106 6 -215 11 -243 6 -35 8 18 5 176
-3 124 -1 233 4 242 6 9 9 -49 10 -151 1 -125 7 -197 24 -287 12 -66 23 -127
23 -135 2 -13 -30 -15 -223 -17 -124 -2 -231 1 -238 6 -11 7 -10 21 6 77 36
122 62 271 62 353 0 47 -4 81 -10 81 -6 0 -10 -28 -10 -64 0 -82 -23 -213 -60
-349 -17 -59 -30 -112 -30 -117 0 -6 99 -10 259 -10 246 0 290 -5 266 -28 -9
-9 -541 -9 -550 0 -3 3 3 38 15 77 57 193 86 446 62 549 -8 34 -7 42 4 42 7 0
16 -12 20 -27z m1303 -69 c38 -19 62 -40 82 -72 33 -53 36 -69 12 -74 -12 -2
-28 12 -48 41 -43 64 -103 94 -177 89 -32 -2 -61 -7 -64 -11 -4 -4 2 -17 13
-30 11 -12 23 -30 26 -40 6 -17 9 -17 29 -3 51 36 136 5 159 -57 11 -32 14
-34 40 -25 38 13 93 -12 119 -54 38 -63 17 -167 -39 -198 -12 -6 -28 -26 -35
-45 -14 -32 -59 -66 -71 -53 -3 3 8 19 25 36 39 39 39 74 1 113 -56 55 -161
31 -161 -36 0 -27 40 -75 62 -75 26 0 58 31 58 55 0 25 -26 46 -47 38 -18 -6
-16 -32 2 -39 23 -9 18 -26 -7 -22 -26 3 -36 41 -18 64 18 20 64 17 85 -6 35
-39 -8 -110 -69 -110 -50 0 -77 27 -83 82 -5 42 -3 50 25 78 37 37 76 39 138
8 43 -21 44 -21 65 -2 15 13 20 27 17 51 -4 34 5 44 16 17 11 -30 6 -52 -19
-82 -14 -17 -22 -33 -17 -36 16 -9 50 23 62 59 18 56 -22 120 -80 126 -55 6
-90 -22 -75 -59 5 -14 9 -12 21 11 8 15 22 27 31 27 12 0 13 -3 3 -15 -16 -19
-6 -47 15 -39 18 7 20 -7 4 -23 -9 -9 -19 -8 -42 4 -38 19 -119 13 -146 -11
-33 -30 -51 -81 -51 -145 0 -77 -16 -79 -24 -3 -10 81 -23 115 -53 143 l-26
24 21 -36 c26 -42 30 -65 5 -29 -42 64 -76 90 -116 90 -76 0 -124 -87 -81
-148 8 -12 23 -22 33 -22 17 0 17 3 3 45 -13 41 -13 47 2 70 17 27 45 32 77
15 22 -12 79 -131 79 -165 0 -27 -22 -48 -47 -43 -12 2 -20 17 -25 48 -5 31
-16 52 -35 67 -15 12 -29 21 -31 19 -2 -2 4 -26 13 -54 27 -81 20 -89 -47 -47
-65 41 -98 96 -98 163 0 106 87 181 162 141 16 -9 23 -8 29 2 9 14 3 21 -37
45 -16 9 -16 14 -5 42 45 107 219 156 340 96z m-1649 -10 c22 -9 40 -21 40
-26 0 -6 -7 -7 -17 -2 -10 4 -65 10 -123 13 -88 5 -102 8 -85 18 29 18 138 16
185 -3z m-566 -8 c123 -37 195 -131 210 -271 l5 -50 -13 60 c-8 33 -19 72 -25
87 -15 40 -79 107 -124 129 -48 25 -124 34 -157 20 -23 -10 -23 -11 8 -5 57
10 127 -14 181 -62 62 -56 92 -119 94 -198 2 -59 1 -61 -25 -64 -19 -2 -28 2
-33 17 -10 31 -54 61 -90 61 -33 0 -33 1 -28 39 6 42 -26 115 -55 126 -7 3 -2
-9 12 -26 36 -43 33 -74 -12 -119 -51 -51 -111 -69 -157 -47 -125 60 -71 261
83 307 41 13 74 11 126 -4z m553 -43 c47 -11 11 -20 -69 -16 -99 5 -126 13
-83 24 29 7 107 4 152 -8z m-121 -80 c-3 -21 -6 -46 -6 -55 0 -10 -7 -18 -15
-18 -16 0 -18 15 -9 73 4 23 12 37 22 37 11 0 13 -8 8 -37z m104 -18 l0 -55
-45 0 -45 0 0 55 0 55 45 0 45 0 0 -55z m47 -22 c-2 -16 -4 -3 -4 27 0 30 2
43 4 28 2 -16 2 -40 0 -55z m-57 -63 c0 -6 -30 -10 -70 -10 -40 0 -70 4 -70
10 0 6 30 10 70 10 40 0 70 -4 70 -10z m-20 -210 l0 -160 -65 0 c-55 0 -65 3
-65 18 0 30 22 276 26 290 2 7 22 12 54 12 l50 0 0 -160z m23 -198 c-23 -17
-145 -12 -151 6 -3 9 17 12 77 12 l81 0 2 173 2 172 3 -175 c3 -158 2 -176
-14 -188z m-452 298 l24 -19 -47 -1 c-51 0 -51 0 -42 24 8 22 37 20 65 -4z
m69 -50 c16 -5 -11 -8 -77 -9 -63 -1 -103 3 -103 9 0 12 143 12 180 0z m1887
-42 c-3 -8 -6 -5 -6 6 -1 11 2 17 5 13 3 -3 4 -12 1 -19z m-1854 1 c-15 -15
-137 -24 -197 -15 -87 13 -47 26 81 26 94 0 124 -3 116 -11z m-80 -46 c-23 -2
-64 -2 -90 0 -26 2 -7 3 42 3 50 0 71 -1 48 -3z m-73 -58 c0 -14 -4 -25 -10
-25 -5 0 -10 11 -10 25 0 14 5 25 10 25 6 0 10 -11 10 -25z m50 -6 c0 -10 -4
-19 -10 -19 -5 0 -10 12 -10 26 0 14 4 23 10 19 6 -3 10 -15 10 -26z m58 4
c-5 -25 -28 -28 -28 -4 0 12 6 21 16 21 9 0 14 -7 12 -17z m2109 -19 c13 -34
-13 -39 -199 -39 -187 0 -207 5 -173 39 24 24 363 24 372 0z m-2014 -49 c44
-19 -1 -26 -171 -28 -135 -1 -182 1 -182 10 0 6 19 16 43 22 47 11 282 8 310
-4z m904 -32 c273 -7 282 -8 173 -16 -115 -8 -534 -2 -551 9 -22 13 6 26 46
20 24 -3 173 -9 332 -13z m1028 8 c-6 -5 -58 -11 -116 -15 -88 -5 -109 -3
-119 9 -11 13 4 15 116 15 73 0 124 -4 119 -9z m-1022 -45 l358 -1 6 -23 c7
-31 -13 -51 -63 -62 -51 -12 -686 -13 -717 -1 -30 12 -39 34 -31 76 l6 32 41
-10 c24 -5 198 -10 400 -11z m-984 5 c11 -7 10 -13 -3 -33 -39 -59 -50 -402
-18 -523 11 -38 26 -87 35 -107 l17 -37 -38 -29 c-20 -16 -47 -34 -60 -41 -25
-14 -30 -6 -56 96 -31 121 -38 237 -25 437 12 171 11 191 -4 217 l-16 29 77 0
c42 0 83 -4 91 -9z m403 -24 c4 -6 4 -15 2 -19 -7 -11 -224 -10 -224 1 0 6 10
17 23 26 18 13 37 15 107 9 47 -4 88 -11 92 -17z m1556 3 c2 -12 -11 -15 -69
-15 -46 0 -74 4 -76 12 -5 15 21 21 87 20 40 -2 56 -6 58 -17z m-22 -67 c-3
-21 -6 -59 -6 -84 0 -46 0 -47 -37 -52 -21 -2 -41 -2 -44 2 -4 3 -9 43 -11 89
l-5 82 55 0 55 0 -7 -37z m-1432 -10 l23 -27 -30 -43 c-34 -47 -42 -51 -51
-27 -11 29 -6 75 12 99 9 14 18 25 20 25 2 0 13 -12 26 -27z m-102 5 c-23 -9
-200 -10 -205 0 -3 4 46 7 109 7 62 0 106 -3 96 -7z m-21 -166 c10 -37 9 -53
-11 -115 -13 -40 -25 -79 -27 -87 -7 -25 -79 64 -104 128 -12 31 -24 89 -27
129 l-5 72 79 3 79 3 3 -45 c1 -25 7 -64 13 -88z m16 96 c-3 -7 -5 -2 -5 12 0
14 2 19 5 13 2 -7 2 -19 0 -25z m838 2 c-8 -13 -604 -13 -625 0 -10 6 96 10
308 10 213 0 321 -3 317 -10z m-587 -48 c2 -7 -11 -26 -28 -42 -20 -19 -30
-36 -26 -46 8 -22 20 -11 55 51 21 38 37 55 51 55 21 0 27 -15 10 -25 -15 -9
-84 -150 -104 -210 -25 -77 -46 -208 -52 -330 -7 -125 8 -210 52 -296 29 -59
101 -139 150 -170 50 -31 63 -18 15 14 -47 31 -50 36 -17 30 36 -7 78 20 123
79 86 112 104 180 102 382 l-2 131 -8 -115 c-16 -221 -41 -311 -102 -368 -34
-32 -97 -45 -150 -31 -85 22 -116 76 -122 208 -4 79 -3 81 5 29 10 -64 33
-123 58 -152 22 -24 90 -56 122 -56 19 0 13 6 -30 28 -60 30 -96 74 -106 130
-4 20 -1 91 6 158 10 95 10 129 0 158 -9 28 -9 56 -1 120 15 113 35 174 74
233 l32 48 180 3 c99 2 194 0 210 -3 55 -10 142 -150 190 -308 14 -48 29 -87
33 -87 11 1 42 27 42 35 0 5 -10 20 -22 33 l-23 25 24 -13 c24 -12 49 -1 37
18 -8 13 -56 22 -56 10 0 -5 -6 -3 -14 4 -12 11 -12 16 2 31 14 16 17 16 24 2
14 -24 41 -19 33 6 -5 15 -3 20 6 17 19 -6 31 -85 19 -128 -6 -24 -20 -42 -42
-54 -18 -11 -36 -24 -39 -29 -4 -5 -7 -46 -7 -91 -1 -44 -4 -94 -8 -109 l-6
-29 30 16 c36 18 59 13 68 -17 7 -21 -4 -33 -67 -78 l-23 -16 47 -47 c49 -50
65 -93 52 -143 -10 -41 -41 -79 -79 -97 -114 -54 -265 31 -331 187 -17 42 -24
52 -21 30 14 -90 79 -176 168 -223 35 -18 65 -34 67 -36 8 -7 -45 -44 -99 -71
l-55 -28 -225 0 c-427 1 -567 60 -626 263 -14 47 -14 47 -9 7 3 -22 8 -51 12
-64 l6 -24 -33 19 c-50 29 -159 133 -196 188 l-33 49 76 74 c63 61 82 73 109
73 19 0 54 10 79 22 24 12 47 19 51 16 3 -3 -2 -21 -12 -40 -14 -28 -9 -25 32
21 73 80 74 83 67 191 -4 81 -2 104 17 160 27 80 71 159 115 206 30 31 38 35
76 32 23 -2 44 -9 47 -16z m708 -70 c45 -36 67 -64 94 -117 37 -74 38 -85 29
-272 -4 -59 -19 -80 -19 -24 0 15 -6 36 -14 46 -12 17 -11 24 5 54 34 63 21
151 -30 211 -20 23 -30 30 -31 19 0 -23 -36 -53 -55 -45 -25 9 -45 66 -34 95
10 25 4 37 -21 43 -23 5 -53 35 -46 47 11 16 58 -6 122 -57z m563 22 c47 -10
27 -24 -34 -24 -51 0 -73 9 -58 24 8 8 51 8 92 0z m-8 -54 c64 0 79 -3 79 -15
0 -12 -18 -15 -105 -15 -84 0 -105 3 -105 14 0 16 19 26 38 20 8 -2 49 -4 93
-4z m27 -212 c-6 -174 -28 -265 -93 -373 -40 -66 -128 -160 -176 -189 -31 -18
-31 -18 -24 3 4 12 8 62 9 111 l3 90 47 50 c88 94 133 235 124 387 l-5 73 60
0 59 0 -4 -152z m-514 -124 c11 -28 -3 -55 -27 -52 -28 4 -35 38 -11 55 23 17
31 16 38 -3z m3 -77 c19 1 34 -4 37 -13 3 -9 11 -12 16 -9 6 4 9 2 8 -2 -2 -5
19 -53 46 -106 45 -88 50 -103 54 -180 4 -69 1 -92 -16 -130 -35 -80 -132
-169 -210 -192 -16 -5 -8 7 28 41 92 86 130 177 130 315 0 100 -38 182 -111
237 -48 36 -66 62 -31 46 9 -4 31 -7 49 -7z m-1402 -33 c-49 -42 -92 -67 -99
-56 -6 11 103 90 124 91 8 0 -3 -16 -25 -35z m34 -30 c-60 -63 -106 -96 -112
-80 -3 8 18 33 56 64 72 59 107 69 56 16z m52 -13 c-15 -27 -131 -125 -139
-117 -6 7 126 135 141 136 4 0 3 -8 -2 -19z m1386 -173 c-20 -49 -76 -49 -77
0 0 10 4 10 20 0 17 -11 23 -9 42 10 29 29 31 28 15 -10z m-828 -473 c182 -22
449 -17 619 10 25 4 32 3 22 -3 -48 -31 -402 -51 -583 -33 -141 14 -217 29
-217 43 0 6 7 7 17 4 9 -4 73 -13 142 -21z m50 -46 c131 -13 396 -5 525 15 64
11 85 11 99 1 26 -18 4 -32 -79 -49 -177 -37 -402 -43 -599 -15 -68 9 -196 38
-204 45 -2 2 3 12 13 23 15 17 21 17 73 5 31 -7 109 -18 172 -25z m-135 -59
c230 -39 480 -36 724 7 65 11 96 13 103 6 14 -14 -57 -37 -175 -58 -192 -33
-642 -11 -780 38 -48 17 -63 42 -20 33 16 -3 83 -15 148 -26z m-99 -34 c236
-61 699 -62 898 -2 34 10 47 11 44 3 -5 -16 -102 -44 -217 -64 -116 -20 -435
-22 -560 -4 -158 22 -270 57 -270 82 0 7 10 9 23 6 12 -3 49 -13 82 -21z m48
-97 c275 -54 674 -39 892 32 55 19 69 20 95 9 34 -14 90 -73 90 -95 0 -38
-112 -84 -295 -122 -150 -30 -494 -43 -651 -24 -218 27 -396 79 -434 129 -19
23 -19 26 -3 53 10 16 39 40 66 53 l48 24 45 -19 c24 -11 91 -29 147 -40z
m-302 -114 c97 -81 529 -141 841 -117 244 19 482 76 540 129 23 21 33 11 16
-17 -34 -56 -241 -118 -471 -140 -166 -16 -517 -8 -647 15 -148 27 -249 62
-287 100 -51 51 -44 75 8 30z"/>
<path d="M1295 4110 c-18 -35 -19 -79 -3 -114 20 -46 94 -80 149 -69 31 6 89
53 89 72 0 5 -11 -1 -24 -14 -47 -47 -144 -41 -186 12 -22 28 -27 91 -10 124
6 10 8 19 6 19 -3 0 -12 -13 -21 -30z"/>
<path d="M2588 3753 c28 -2 76 -2 105 0 28 2 5 3 -53 3 -58 0 -81 -1 -52 -3z"/>
<path d="M2646 3479 c-20 -30 -6 -63 28 -67 33 -4 56 13 56 42 0 47 -57 63
-84 25z m54 -30 c0 -5 -7 -9 -15 -9 -15 0 -20 12 -9 23 8 8 24 -1 24 -14z"/>
<path d="M2570 3200 c-11 -11 -20 -31 -20 -44 0 -28 35 -76 56 -76 11 0 6 -10
-14 -29 -27 -28 -42 -67 -42 -111 0 -10 12 -33 27 -50 l27 -32 -25 -19 c-13
-10 -27 -19 -31 -19 -14 0 -8 -38 6 -43 8 -3 22 1 33 8 25 20 99 19 107 0 6
-18 52 -20 62 -4 4 7 -10 26 -35 46 l-41 35 24 19 c48 37 43 115 -11 171 l-25
26 22 7 c11 4 25 18 31 32 24 65 -5 103 -81 103 -37 0 -55 -5 -70 -20z m113
-21 c14 -23 1 -67 -23 -74 -43 -14 -82 35 -60 75 14 25 67 25 83 -1z m-3 -154
c45 -48 21 -135 -37 -135 -57 0 -83 82 -42 134 26 33 49 33 79 1z m-12 -192
c2 -9 -7 -13 -27 -13 -30 0 -39 9 -24 24 11 10 46 3 51 -11z"/>
<path d="M2500 2758 c0 -27 5 -40 19 -48 30 -15 66 -12 93 9 23 19 24 19 48 0
30 -23 102 -25 120 -5 6 8 10 25 8 37 -4 28 -28 38 -28 11 0 -38 -46 -42 -87
-8 -28 24 -29 24 -52 5 -34 -28 -75 -24 -100 9 l-20 27 -1 -37z"/>
<path d="M2831 2714 c0 -11 3 -14 6 -6 3 7 2 16 -1 19 -3 4 -6 -2 -5 -13z"/>
<path d="M3461 3074 c-25 -31 -26 -44 -7 -69 11 -15 24 -19 57 -17 69 5 88 44
44 87 -32 33 -68 32 -94 -1z m53 -13 c7 -10 -22 -37 -30 -28 -9 8 3 37 15 37
5 0 12 -4 15 -9z"/>
<path d="M3645 3016 c-15 -16 -22 -31 -19 -41 6 -14 10 -13 33 9 14 13 39 28
54 32 21 5 25 9 15 15 -24 16 -59 9 -83 -15z"/>
<path d="M3698 2989 c-24 -13 -23 -61 0 -82 29 -27 58 -21 72 13 10 25 10 34
-4 55 -17 26 -40 31 -68 14z m43 -42 c-1 -12 -15 -9 -19 4 -3 6 1 10 8 8 6 -3
11 -8 11 -12z"/>
<path d="M3483 2948 c-35 -39 -35 -56 -3 -73 27 -14 30 -14 49 6 21 23 19 39
-5 39 -9 0 -14 -10 -14 -27 0 -26 -1 -26 -17 -10 -26 26 -6 51 44 55 32 2 44
-2 66 -24 15 -15 27 -34 26 -43 0 -12 -4 -11 -16 7 -20 29 -41 28 -54 -2 -10
-20 -8 -30 9 -54 12 -16 28 -34 36 -41 15 -13 16 -10 32 80 6 41 -14 92 -41
103 -37 14 -91 6 -112 -16z"/>
<path d="M3357 2939 c-21 -12 -57 -90 -57 -122 0 -19 3 -18 19 9 11 17 39 42
63 55 50 28 59 62 18 66 -14 2 -33 -2 -43 -8z m53 -18 c0 -5 -7 -11 -15 -15
-9 -3 -15 0 -15 9 0 8 7 15 15 15 8 0 15 -4 15 -9z"/>
<path d="M3651 2915 c1 -19 18 -51 18 -35 0 8 -4 22 -9 30 -5 8 -9 11 -9 5z"/>
<path d="M3407 2805 c-4 -8 7 -25 26 -41 l32 -27 3 28 c5 42 -48 76 -61 40z"/>
<path d="M3497 2704 c-4 -4 -7 -18 -7 -31 0 -18 5 -24 18 -21 10 2 17 12 17
27 0 24 -15 37 -28 25z"/>
<path d="M1379 3073 c-13 -17 -13 -17 6 -3 11 8 22 16 24 17 2 2 0 3 -6 3 -6
0 -17 -8 -24 -17z"/>
<path d="M1331 2987 c-3 -77 77 -129 122 -79 27 29 21 46 -8 24 -40 -32 -86
-8 -105 54 l-8 29 -1 -28z"/>
<path d="M2261 2231 c-29 -15 -59 -52 -61 -72 0 -4 9 -9 20 -12 11 -3 20 -10
20 -15 0 -5 -9 -12 -20 -15 -11 -3 -20 -12 -20 -21 0 -19 13 -20 40 -4 27 17
37 2 14 -23 -18 -20 -37 -21 -76 -4 -14 5 -18 2 -18 -13 0 -28 25 -45 60 -40
16 2 32 0 35 -6 2 -6 2 0 -1 14 -4 14 -3 21 2 17 4 -4 14 12 21 35 11 37 10
48 -3 76 -20 43 -15 68 13 64 14 -2 26 4 33 17 9 18 8 21 -7 20 -10 -1 -33 -9
-52 -18z"/>
<path d="M2590 2243 c-44 -8 -44 -20 -3 -70 54 -65 83 -113 83 -140 0 -37 16
-26 35 22 9 25 40 71 68 102 29 31 43 51 32 45 -30 -15 -74 -61 -103 -107 -24
-38 -25 -38 -33 -16 -7 18 -2 30 23 62 17 21 35 39 40 39 4 0 8 5 8 12 0 6
-11 1 -25 -12 -14 -13 -25 -20 -25 -15 0 11 30 34 69 51 18 8 32 17 30 18 -7
6 -174 14 -199 9z m68 -35 c7 -7 12 -20 12 -30 0 -10 5 -18 11 -18 8 0 8 -5
-1 -15 -18 -21 -28 -19 -62 15 -25 25 -28 33 -18 45 15 18 42 19 58 3z"/>
<path d="M2620 2186 c0 -18 17 -29 30 -21 8 5 7 11 -1 21 -15 18 -29 18 -29 0z"/>
<path d="M2460 2179 c0 -6 12 -25 27 -43 71 -85 107 -220 101 -382 -2 -79 -6
-98 -21 -109 -21 -15 -50 -9 -44 9 2 6 12 11 23 11 34 1 7 55 -27 55 -19 0
-49 -35 -49 -57 0 -7 16 -31 36 -53 40 -44 29 -53 -31 -25 -79 38 -72 144 11
175 35 14 54 66 54 147 0 72 -27 153 -72 218 l-23 34 -16 -32 c-21 -41 -31
-99 -24 -130 4 -16 20 -31 46 -42 21 -10 39 -22 39 -27 0 -5 6 -6 13 -2 27 16
-29 -38 -59 -57 -47 -29 -69 -93 -68 -199 0 -63 6 -100 23 -142 26 -67 51 -88
104 -88 73 0 105 57 127 230 21 167 6 319 -40 409 -31 62 -130 138 -130 100z
m25 -141 c17 -15 27 -36 30 -63 5 -39 5 -39 -6 -10 -14 36 -47 74 -74 85 -19
8 -19 9 2 9 12 1 34 -9 48 -21z"/>
<path d="M2801 2134 c-75 -82 -85 -126 -78 -339 10 -291 35 -401 110 -482 45
-49 71 -51 115 -10 41 38 82 142 82 207 0 19 -6 13 -24 -27 -19 -39 -34 -57
-65 -72 -56 -29 -98 -28 -113 4 -20 45 36 127 77 111 26 -9 18 -36 -11 -36
-32 0 -28 -24 5 -28 29 -4 61 24 61 53 0 26 -21 46 -64 60 -44 14 -45 44 -1
83 19 18 35 27 35 20 0 -6 10 -22 22 -35 12 -13 25 -42 28 -66 l6 -42 13 40
c6 22 14 88 18 146 7 119 -6 211 -43 302 -25 62 -85 151 -109 160 -8 4 -33
-15 -64 -49z m95 -85 c30 -34 44 -108 43 -233 -1 -86 -4 -108 -9 -77 -8 54
-32 74 -82 69 -40 -4 -43 -2 -28 22 6 10 3 24 -11 46 -27 44 -25 107 5 158 13
23 27 57 31 76 l8 35 14 -39 c7 -22 20 -47 29 -57z m-26 -308 c0 -11 -14 -55
-32 -98 -55 -137 -48 -236 25 -322 31 -35 31 -36 3 -11 -50 44 -76 114 -76
206 0 45 4 105 10 133 14 75 70 148 70 92z"/>
<path d="M2849 1992 c-26 -23 -31 -33 -25 -55 15 -60 86 -18 86 50 0 42 -19
43 -61 5z"/>
<path d="M2137 2032 c-11 -17 -27 -130 -21 -147 18 -45 84 2 84 60 0 24 -6 35
-24 43 -14 6 -26 21 -28 34 -2 16 -5 19 -11 10z m21 -94 c7 -7 12 -21 12 -32
0 -18 -1 -19 -20 -1 -20 18 -27 45 -12 45 4 0 13 -5 20 -12z"/>
<path d="M2217 1907 c-15 -37 -28 -52 -57 -67 -21 -11 -42 -30 -45 -42 -4 -13
-29 -66 -55 -118 -26 -52 -55 -119 -64 -149 -22 -74 -20 -175 3 -226 29 -63
117 -137 191 -160 17 -5 10 4 -25 30 -61 47 -78 67 -113 130 -24 44 -27 61
-27 145 0 93 1 97 50 200 59 125 54 118 65 101 4 -8 15 -11 24 -8 19 7 21 42
4 53 -8 5 -9 0 -6 -14 8 -28 -8 -38 -21 -14 -15 27 8 57 37 48 46 -15 35 -76
-26 -138 -28 -30 -32 -38 -18 -38 10 0 30 -9 45 -20 l28 -19 6 102 c3 56 11
125 17 154 6 29 10 63 8 75 -2 18 -7 13 -21 -25z"/>
<path d="M2075 1580 c-21 -41 -20 -96 3 -102 27 -7 59 8 78 37 17 26 16 27
-16 60 -19 19 -37 35 -42 35 -4 0 -14 -13 -23 -30z m49 -28 c8 -13 -11 -35
-23 -28 -16 10 -14 36 3 36 8 0 17 -4 20 -8z"/>
<path d="M2190 1520 c0 -5 -22 -34 -49 -64 -56 -62 -70 -106 -52 -166 13 -45
90 -127 128 -136 19 -5 22 -9 11 -16 -10 -8 -9 -9 4 -4 10 3 53 0 97 -6 61 -9
86 -9 105 0 41 19 30 27 -29 24 -84 -6 -199 23 -241 60 -65 57 -80 116 -44
175 38 64 104 50 141 -30 34 -76 22 -117 -36 -117 -54 0 -96 65 -63 98 16 16
60 15 77 0 11 -11 12 -9 2 8 -11 23 -50 38 -74 28 -17 -6 -37 -47 -37 -73 0
-27 35 -67 68 -79 20 -7 37 -6 60 4 27 11 32 18 32 46 l0 32 73 -72 c40 -39
76 -72 81 -72 5 0 1 10 -10 21 -14 16 -7 14 30 -9 109 -70 221 -79 332 -28 51
23 71 46 41 46 -8 0 -24 11 -37 25 l-23 25 -19 -30 c-49 -82 -147 -93 -274
-31 -108 53 -163 104 -212 198 -22 43 -45 95 -52 116 -10 34 -30 51 -30 27z"/>
<path d="M1931 1494 c0 -11 3 -14 6 -6 3 7 2 16 -1 19 -3 4 -6 -2 -5 -13z"/>
<path d="M1921 1434 c0 -11 3 -14 6 -6 3 7 2 16 -1 19 -3 4 -6 -2 -5 -13z"/>
<path d="M3015 1363 c-22 -57 -29 -66 -63 -88 -17 -11 -31 -23 -32 -26 0 -10
41 -19 93 -19 38 0 53 5 72 25 31 30 33 82 4 119 -30 38 -56 34 -74 -11z"/>
<path d="M2622 1353 c-20 -8 -44 -63 -38 -87 5 -22 43 -46 70 -46 6 0 26 10
42 23 27 20 30 25 22 54 -12 48 -55 73 -96 56z m53 -73 c0 -18 -6 -26 -23 -28
-13 -2 -25 3 -28 12 -10 26 4 48 28 44 17 -2 23 -10 23 -28z"/>
<path d="M3025 2129 c-9 -41 14 -69 35 -44 10 12 11 24 4 42 -13 38 -31 39
-39 2z"/>
<path d="M3562 1980 c-5 -170 -52 -308 -138 -400 -26 -28 -45 -53 -42 -55 3
-3 26 17 52 45 90 96 140 248 133 409 l-3 86 -2 -85z"/>
</g>
</svg>