<?xml version="1.0" standalone="no"?>
<!DOCTYPE svg PUBLIC "-//W3C//DTD SVG 20010904//EN"
 "http://www.w3.org/TR/2001/REC-SVG-20010904/DTD/svg10.dtd">
<svg version="1.0" xmlns="http://www.w3.org/2000/svg"
 width="512.000000pt" height="512.000000pt" viewBox="0 0 512.000000 512.000000"
 preserveAspectRatio="xMidYMid meet">
<metadata>
Created by potrace 1.16, written by Peter Selinger 2001-2019
</metadata>
<g transform="translate(0.000000,512.000000) scale(0.100000,-0.100000)"
fill="#000000" stroke="none">
<path d="M2315 4357 c-62 -21 -122 -55 -129 -73 -4 -11 14 -38 62 -88 82 -86
163 -236 142 -261 -10 -13 -10 -19 5 -35 12 -13 15 -27 10 -49 -3 -16 -1 -48
6 -70 11 -36 10 -43 -6 -61 -15 -16 -31 -20 -82 -20 -70 0 -103 -12 -103 -37
0 -8 29 -43 65 -76 76 -69 95 -100 95 -157 l0 -40 -76 0 c-80 0 -114 -11 -114
-36 0 -9 33 -48 74 -87 l74 -72 11 -78 c25 -177 6 -503 -34 -563 -13 -21 -23
-24 -76 -24 -75 0 -96 -11 -105 -55 -8 -45 10 -74 56 -89 52 -16 77 -75 90
-208 8 -76 7 -126 0 -175 -14 -88 -53 -199 -80 -227 -11 -13 -17 -27 -13 -32
4 -5 -18 15 -49 45 l-56 54 14 40 c22 62 28 165 14 232 -7 33 -35 116 -62 185
-62 159 -78 221 -78 305 0 103 15 139 82 199 64 58 76 96 37 116 -26 14 -35 7
-14 -10 25 -20 18 -36 -35 -81 -72 -61 -104 -130 -104 -228 1 -96 14 -152 80
-326 29 -77 58 -171 64 -209 16 -101 -8 -207 -56 -247 -16 -13 -17 -13 -2 11
9 14 24 52 34 85 30 106 12 203 -79 425 -45 110 -61 191 -55 288 6 104 33 160
104 214 l54 40 -21 26 -20 26 25 19 c30 21 33 48 10 71 -22 23 -36 10 -28 -29
3 -19 1 -35 -5 -39 -14 -9 -14 -53 -1 -61 6 -3 -12 -24 -39 -45 -56 -45 -87
-101 -102 -189 -17 -93 1 -189 65 -350 76 -192 80 -207 80 -291 1 -81 -24
-168 -56 -197 -17 -15 -21 -15 -60 13 -66 46 -103 102 -128 195 -25 92 -49
256 -50 334 0 43 3 52 23 60 15 7 23 20 25 43 3 27 -1 35 -28 50 l-32 17 5
164 c5 143 8 166 25 185 48 52 26 106 -42 106 -31 0 -33 2 -29 28 4 26 19 63
49 125 18 37 18 52 -2 71 -20 20 -213 23 -232 4 -19 -19 -14 -63 9 -84 26 -23
58 -90 59 -121 0 -17 -6 -23 -21 -23 -30 0 -59 -18 -59 -38 0 -9 8 -39 19 -67
14 -36 21 -91 26 -200 l6 -150 -30 -17 c-24 -13 -31 -24 -31 -47 0 -33 22 -61
50 -61 16 0 19 -11 24 -87 25 -381 81 -555 228 -707 66 -68 68 -73 68 -121 0
-64 33 -116 90 -142 32 -14 39 -22 35 -38 -3 -11 -12 -45 -20 -75 -20 -74 -19
-204 2 -266 11 -33 33 -66 70 -101 l54 -53 -58 -26 c-56 -26 -68 -27 -298 -35
-269 -9 -383 -17 -390 -29 -8 -14 50 -19 338 -32 362 -17 1381 -17 1784 0 322
13 403 19 403 33 0 11 -115 19 -435 28 -274 8 -293 10 -335 31 -75 38 -74 38
-28 84 51 51 76 107 91 203 l12 75 53 20 c64 24 140 96 175 165 34 66 49 128
92 378 20 116 53 298 75 405 21 107 43 222 49 256 7 49 21 77 65 142 67 99 92
175 111 342 29 242 15 433 -45 623 -49 154 -127 347 -165 407 -19 30 -43 71
-54 90 -11 20 -40 55 -66 79 -150 138 -364 131 -561 -18 -42 -31 -54 -36 -74
-29 -28 10 -55 1 -107 -39 -20 -15 -42 -28 -50 -29 -21 -3 -40 -33 -48 -72 -3
-18 -9 -30 -14 -28 -4 3 -15 -4 -24 -15 -20 -23 -39 -25 -31 -4 4 8 -1 26 -10
39 -14 23 -14 25 7 39 20 13 21 16 8 41 -26 49 22 167 115 281 55 67 53 77
-21 115 -44 21 -65 25 -175 27 -84 2 -138 -2 -165 -10z m257 -18 c68 -15 108
-35 108 -55 0 -13 -6 -15 -27 -9 -70 19 -114 24 -198 23 -80 0 -84 -1 -39 -8
79 -12 97 -25 91 -68 -3 -21 -11 -92 -18 -159 -13 -122 -14 -123 -39 -123 -21
0 -29 8 -43 47 -29 78 -82 164 -141 229 -60 66 -60 67 1 98 70 35 204 46 305
25z m772 -230 c56 -21 125 -73 113 -85 -4 -4 -17 2 -30 14 -12 11 -49 33 -82
48 -49 23 -75 28 -140 28 -72 1 -88 -3 -155 -35 -41 -20 -96 -52 -122 -72 -56
-43 -65 -33 -11 12 51 42 149 93 208 108 61 15 150 8 219 -18z m-42 -39 c39
-12 81 -34 107 -56 31 -27 45 -34 54 -25 13 13 37 15 37 2 0 -5 -10 -11 -22
-13 -21 -3 -23 -8 -20 -48 3 -44 2 -47 -48 -89 -87 -74 -125 -154 -137 -288
-9 -102 46 -220 179 -380 124 -150 121 -144 108 -261 -6 -53 -10 -141 -10
-197 2 -130 -15 -268 -45 -380 -13 -49 -40 -189 -60 -310 -93 -573 -103 -617
-152 -688 -26 -38 -97 -87 -124 -87 -9 0 -23 29 -37 78 -13 42 -43 119 -68
171 -24 51 -44 103 -44 113 0 30 67 152 111 202 45 51 48 74 16 104 -45 42
-106 60 -206 61 -52 0 -99 5 -104 10 -6 6 -10 64 -10 133 0 161 17 229 73 281
28 27 40 47 40 67 0 48 -22 60 -108 60 -42 0 -82 4 -88 8 -21 14 -54 80 -68
136 -24 89 -30 247 -17 382 14 137 33 180 106 240 77 62 53 94 -71 94 l-64 0
0 46 c0 59 19 97 82 169 70 78 63 88 -63 95 l-94 5 -3 37 c-3 30 1 39 20 49
13 7 38 12 56 10 25 -1 40 6 62 27 17 18 33 26 42 22 23 -13 58 9 74 45 13 32
18 35 54 35 22 0 40 4 40 9 0 16 121 98 176 119 92 37 139 39 226 12z m-486
-101 c-15 -12 -34 -18 -42 -15 -26 10 3 36 39 36 l30 0 -27 -21z m711 -72 c4
-44 1 -64 -16 -100 -23 -47 -101 -116 -154 -136 -36 -14 -37 -14 -37 4 0 29
38 91 79 128 73 66 76 41 6 -42 -39 -48 -43 -56 -17 -42 58 32 107 131 99 202
-4 32 -2 49 6 52 20 7 28 -8 34 -66z m-762 29 c18 -38 14 -56 -14 -56 -25 0
-44 45 -31 71 15 28 27 24 45 -15z m-245 -16 c0 -12 -67 -12 -95 0 -14 6 -4 9
38 9 32 1 57 -3 57 -9z m173 3 c-7 -2 -13 -18 -13 -35 0 -19 -4 -28 -12 -26
-32 11 -13 69 21 67 10 0 11 -2 4 -6z m906 -93 c39 -74 118 -294 146 -406 36
-140 48 -303 34 -469 -14 -176 -31 -260 -68 -333 -35 -68 -87 -142 -101 -142
-15 0 -12 59 5 105 8 23 14 77 14 125 1 103 -29 304 -51 345 -9 17 -48 68 -88
115 -125 149 -169 229 -190 342 -10 50 -4 108 11 108 5 0 9 -21 10 -47 0 -27
7 -64 15 -83 l14 -35 -5 45 c-2 25 -7 63 -10 86 -5 36 -3 42 20 52 35 16 36
16 24 -15 -14 -37 -13 -145 2 -190 15 -49 39 -82 123 -173 153 -165 185 -226
188 -358 l2 -77 13 45 c46 149 52 241 27 409 -27 183 -108 388 -187 471 -21
23 -22 28 -11 55 7 17 13 48 14 70 0 46 4 42 49 -45z m-1075 33 c4 -10 -8 -13
-44 -13 -46 0 -50 2 -50 23 0 22 2 23 45 13 24 -6 47 -16 49 -23z m16 -43 c0
-5 -24 -10 -54 -10 -30 0 -58 5 -61 10 -4 6 17 10 54 10 34 0 61 -4 61 -10z
m-74 -31 c3 -6 1 -15 -6 -19 -7 -4 -10 -15 -7 -24 4 -9 3 -16 -2 -16 -9 0 -21
33 -21 58 0 15 26 16 36 1z m41 -5 c-3 -3 -12 -4 -19 -1 -8 3 -5 6 6 6 11 1
17 -2 13 -5z m1110 -191 c77 -161 127 -430 106 -568 l-9 -60 -17 55 c-25 74
-67 137 -171 250 -107 117 -136 172 -136 254 0 98 14 135 72 188 l52 46 29
-36 c17 -21 50 -79 74 -129z m-1092 147 c-3 -5 -15 -10 -25 -10 -10 0 -22 5
-25 10 -4 6 7 10 25 10 18 0 29 -4 25 -10z m-72 -27 c-7 -2 -19 -2 -25 0 -7 3
-2 5 12 5 14 0 19 -2 13 -5z m246 -32 c23 -15 -69 -21 -271 -19 -169 1 -221 8
-170 21 32 9 427 7 441 -2z m-72 -47 l22 -6 -22 -34 c-17 -27 -27 -33 -42 -28
-11 3 -72 8 -135 11 -107 5 -117 7 -142 31 -16 14 -28 30 -28 35 0 11 306 2
347 -9z m-94 -80 c14 -5 17 -20 17 -81 l0 -74 -72 3 -73 3 -5 51 c-3 27 -13
62 -23 77 -9 14 -17 29 -17 33 0 8 148 -2 173 -12z m165 -180 c94 -10 63 -24
-56 -25 l-107 -1 55 -13 c52 -12 44 -13 -137 -16 -186 -4 -193 -3 -220 18
l-27 22 24 10 c28 11 374 14 468 5z m-83 -82 l49 -7 -27 -18 c-22 -14 -40 -17
-90 -12 -66 5 -55 -3 31 -25 26 -7 42 -16 39 -23 -6 -19 -257 -20 -257 -1 0 8
-16 32 -36 54 l-36 40 138 -1 c77 0 161 -4 189 -7z m-906 -88 c2 -2 -3 -14
-12 -27 -12 -19 -28 -26 -74 -31 -54 -6 -59 -5 -80 19 -28 31 -29 42 -5 48 17
5 164 -3 171 -9z m809 -30 c71 -6 92 -10 92 -22 0 -10 -7 -13 -22 -8 -13 3
-67 6 -120 6 -80 0 -98 3 -98 15 0 17 14 18 148 9z m-813 -54 c-3 -5 -35 -10
-71 -10 -36 0 -64 4 -64 10 0 6 30 10 71 10 44 0 68 -4 64 -10z m888 4 c9 -3
12 -14 9 -30 -4 -23 -6 -24 -23 -9 -11 11 -41 18 -81 21 l-63 4 60 -18 c93
-27 103 -39 65 -83 -20 -24 -20 -24 -35 -5 -22 28 -18 7 5 -31 15 -25 16 -33
6 -33 -14 0 -51 89 -38 91 4 1 12 2 17 4 6 1 16 3 23 3 6 1 12 6 12 10 0 15
-50 32 -95 32 -43 0 -44 -1 -27 -18 12 -14 23 -16 40 -10 36 12 39 9 12 -11
l-24 -19 30 -49 c33 -54 56 -61 93 -29 l24 21 -7 -30 c-4 -16 -8 -31 -9 -31
-1 -1 -35 1 -76 5 -55 5 -77 12 -87 26 -12 16 -14 16 -14 2 0 -30 40 -47 111
-47 l66 0 7 -37 c3 -21 6 -66 6 -99 l0 -61 -46 -7 c-26 -3 -78 -6 -116 -6
l-70 0 8 33 c9 42 9 365 0 395 -7 22 -7 22 98 22 57 0 111 -2 119 -6z m-923
-56 c0 -50 -11 -68 -41 -68 -18 0 -29 5 -29 14 0 7 -3 28 -6 45 -6 31 -6 31
35 31 36 0 41 -3 41 -22z m405 -75 c-7 -17 -8 -17 -15 2 -5 11 -9 27 -9 35 -1
12 2 11 15 -2 11 -11 14 -23 9 -35z m511 -8 c-16 -25 -36 -33 -36 -16 0 15 45
61 48 50 2 -5 -3 -21 -12 -34z m-827 -20 c2 -2 1 -16 -3 -30 -6 -24 -8 -25
-89 -24 -45 1 -93 4 -107 8 -31 8 -40 47 -13 55 19 5 205 -3 212 -9z m1848
-196 c5 -91 -2 -208 -12 -197 -2 1 -8 43 -14 92 -12 101 -4 292 11 241 5 -16
11 -78 15 -136z m-1897 107 c0 -11 -17 -14 -80 -13 -57 1 -80 5 -80 14 0 10
22 13 80 13 62 0 80 -3 80 -14z m-36 -42 c13 -12 16 -41 16 -149 0 -123 -2
-135 -19 -145 -11 -5 -31 -10 -44 -10 -45 0 -54 24 -61 171 -3 75 -3 139 1
142 13 14 92 7 107 -9z m980 -183 c11 -16 -25 -21 -160 -21 -122 0 -146 4
-127 23 10 10 281 8 287 -2z m-31 -71 c18 -29 17 -30 -5 -35 -13 -3 -82 -4
-154 -3 l-130 3 13 33 13 32 123 0 123 0 17 -30z m947 -202 c-20 -66 -53 -119
-64 -107 -4 3 0 21 8 40 20 49 46 179 47 241 l1 53 15 -80 c14 -76 14 -83 -7
-147z m-688 124 c9 -9 -16 -12 -123 -12 -116 -1 -132 -2 -116 -14 10 -8 40
-17 66 -21 26 -3 53 -10 60 -14 16 -10 -197 -21 -408 -21 -139 0 -167 3 -183
17 -25 23 -23 61 5 73 34 15 683 8 699 -8z m-1113 -6 c9 -11 8 -18 -4 -30 -13
-13 -39 -16 -131 -16 -119 0 -135 6 -120 45 8 21 238 22 255 1z m-112 -98 c40
-45 52 -74 63 -158 15 -113 53 -257 87 -328 16 -31 52 -82 81 -112 l53 -55
-38 -72 c-21 -40 -41 -73 -44 -73 -4 0 -33 28 -66 63 -67 72 -121 174 -153
287 -24 88 -50 293 -50 397 0 70 1 73 23 73 13 0 33 -10 44 -22z m1031 -15
c102 -5 113 -8 110 -24 -3 -17 -21 -19 -260 -22 l-256 -4 -13 26 c-7 14 -15
30 -18 35 -4 9 172 4 437 -11z m894 -79 c-5 -24 -14 -40 -25 -42 -14 -3 -14 2
6 42 12 24 23 43 24 42 2 -2 0 -21 -5 -42z m-874 -12 c4 -26 -13 -52 -34 -52
-8 0 -31 16 -53 35 -21 19 -43 35 -48 35 -6 0 -41 -27 -78 -60 -37 -33 -71
-57 -76 -54 -10 6 5 39 21 49 6 3 17 21 26 38 15 29 12 28 -35 -17 l-51 -50
-31 30 c-33 30 -31 15 4 -23 l20 -22 -27 -31 c-40 -48 -31 -59 14 -15 22 21
43 35 47 31 4 -4 -11 -25 -34 -46 -41 -39 -41 -39 -23 -63 10 -13 42 -57 70
-98 57 -82 78 -98 132 -99 32 0 43 7 90 58 29 31 50 53 46 48 -5 -6 -8 -25 -8
-42 0 -37 28 -63 70 -66 36 -2 -247 -15 -371 -17 l-106 -1 4 24 c4 21 8 23 28
16 20 -8 124 -4 133 5 6 6 -89 144 -108 158 -14 9 -19 33 -24 112 -4 55 -9
108 -12 117 -6 21 31 25 251 24 159 -1 160 -1 163 -24z m-111 -28 c8 -21 -27
-67 -109 -142 l-68 -64 42 -60 c23 -33 55 -67 72 -75 l30 -16 40 49 c61 73
156 170 155 159 0 -5 -39 -55 -88 -110 -73 -84 -92 -101 -120 -103 -37 -4 -76
26 -114 88 -11 19 -34 52 -51 73 -35 44 -43 30 85 141 85 75 115 89 126 60z
m148 -69 l7 -40 -31 29 c-29 28 -29 29 -13 51 20 26 26 19 37 -40z m819 28
c-18 -84 -69 -362 -94 -508 -33 -191 -61 -308 -86 -357 -27 -52 -97 -120 -149
-144 -61 -29 -75 -30 -75 -5 0 13 11 23 34 31 53 17 112 75 146 143 21 44 36
98 50 187 11 69 34 197 50 285 16 88 36 203 45 255 22 130 22 130 55 130 22 0
27 -4 24 -17z m-929 -13 c3 -6 -1 -7 -10 -4 -11 5 -14 2 -9 -12 6 -15 4 -16
-6 -7 -7 6 -9 16 -6 22 9 14 23 14 31 1z m-14 -86 c40 -54 60 -44 30 15 -18
34 -19 41 -6 41 8 0 24 -19 36 -42 l21 -41 -42 -40 c-23 -22 -48 -50 -57 -63
-8 -13 -19 -24 -23 -24 -17 0 -50 58 -43 76 6 15 7 15 14 -4 9 -24 29 -30 29
-9 0 7 -7 22 -15 35 -13 18 -19 20 -35 10 -11 -7 -22 -25 -26 -41 -5 -23 -8
-26 -20 -16 -23 19 -16 43 24 82 l39 38 31 -51 c18 -28 32 -57 32 -63 0 -15
20 13 20 29 0 6 -16 29 -35 51 -22 26 -33 47 -29 57 8 21 17 14 55 -40z m113
5 c-7 -12 -21 -3 -35 22 -10 20 -10 20 15 4 14 -10 23 -21 20 -26z m-4 -92
l-34 -32 30 36 c16 20 31 34 33 32 3 -2 -10 -18 -29 -36z m-365 -55 c-3 -8 -5
-27 -5 -43 0 -25 -4 -29 -29 -29 -17 0 -32 4 -36 10 -3 5 0 39 7 76 l12 67 28
-34 c16 -18 26 -40 23 -47z m389 12 c3 -8 2 -12 -4 -9 -6 3 -10 10 -10 16 0
14 7 11 14 -7z m-194 -48 c0 -5 -8 -2 -17 5 -25 20 -33 32 -26 42 6 10 42 -30
43 -47z m199 -7 c13 -37 -1 -38 -16 -1 l-12 27 6 -28 c5 -24 3 -28 -13 -25
-23 4 -31 43 -13 64 15 18 33 4 48 -37z m-357 1 c17 -29 16 -30 -4 -30 -14 0
-18 5 -14 15 3 8 1 15 -4 15 -6 0 -10 7 -10 15 0 24 14 17 32 -15z m691 -2
c35 -17 56 -42 45 -54 -3 -2 -40 12 -83 32 -56 26 -74 38 -64 45 17 10 51 2
102 -23z m-153 -13 c0 -4 -7 -20 -15 -38 l-16 -32 21 24 c11 13 24 31 29 39 7
12 16 10 59 -12 l52 -26 -55 -82 c-59 -88 -63 -99 -40 -118 8 -7 15 -24 15
-38 0 -22 -5 -19 -35 28 -19 30 -35 62 -35 70 0 8 -9 29 -19 46 -13 22 -16 36
-9 48 5 9 6 16 1 15 -23 -4 -31 5 -41 41 l-10 40 49 0 c27 0 49 -2 49 -5z
m-150 -94 c0 -11 -96 -21 -234 -23 -82 -1 -61 -3 81 -7 157 -5 195 -9 208 -22
15 -14 1 -16 -157 -22 -227 -9 -468 -9 -468 0 0 4 12 24 26 45 l27 38 258 0
c143 0 259 -4 259 -9z m-688 -28 c14 -16 36 -49 50 -75 l26 -46 -41 -69 c-23
-37 -47 -72 -54 -76 -7 -4 -13 -14 -13 -21 0 -28 -62 -136 -78 -136 -31 0 -78
37 -96 75 -36 76 11 212 110 315 31 33 60 60 64 60 3 0 18 -12 32 -27z m407
-96 c-15 -12 -40 -30 -58 -39 -38 -21 -47 -41 -35 -77 8 -22 5 -29 -23 -54
-34 -30 -66 -30 -77 -2 -8 23 -36 18 -58 -10 -26 -33 -48 -32 -48 1 0 23 -2
25 -16 14 -8 -8 -14 -25 -12 -39 4 -36 38 -39 76 -6 30 25 33 25 54 11 31 -22
60 -20 92 5 l26 20 26 -20 c39 -31 59 -26 79 18 l18 40 21 -42 c25 -51 44 -56
83 -23 30 25 31 25 54 7 41 -31 67 -34 103 -13 l34 20 23 -24 c24 -26 48 -31
66 -13 16 16 29 -12 55 -118 28 -114 30 -257 5 -330 -23 -65 -89 -141 -151
-171 -70 -35 -167 -44 -411 -39 -253 5 -296 14 -368 77 -125 110 -117 302 25
569 40 75 86 164 103 198 l30 62 155 0 155 0 -26 -22z m320 -33 c30 -32 54
-72 68 -112 25 -71 15 -81 -32 -32 -15 16 -31 28 -34 27 -13 -4 -121 59 -126
74 -3 8 -24 26 -48 39 -23 13 -53 32 -67 43 l-25 19 109 -4 108 -3 47 -51z
m-200 -14 c5 0 20 -9 35 -21 22 -17 24 -24 15 -41 -10 -19 -12 -19 -51 18 -22
22 -47 52 -55 68 l-16 30 32 -27 c18 -15 36 -27 40 -27z m-103 11 c-9 -16 -27
-43 -42 -60 -21 -25 -29 -29 -40 -20 -24 20 -15 38 39 73 28 19 53 35 55 35 1
1 -4 -12 -12 -28z m19 -53 c-16 -74 -51 -112 -80 -88 -13 11 -11 15 9 31 14
11 34 35 46 54 27 44 34 44 25 3z m79 -46 c30 -32 30 -34 12 -48 -11 -8 -23
-14 -27 -14 -11 0 -40 68 -46 108 l-5 37 17 -25 c10 -14 32 -40 49 -58z m141
-10 c35 -22 42 -31 33 -40 -18 -18 -38 -15 -80 14 -30 21 -36 30 -27 40 16 19
23 18 74 -14z m-195 -762 c314 -4 385 -7 315 -14 -49 -4 -124 -11 -165 -15
-42 -5 13 -6 126 -3 129 3 203 1 207 -5 9 -14 -108 -22 -448 -29 -326 -8 -588
1 -583 20 6 18 111 67 128 59 8 -4 197 -10 420 -13z"/>
<path d="M2428 2987 c-3 -15 -1 -24 4 -21 4 3 11 -8 14 -24 5 -23 10 -28 25
-25 20 5 27 23 9 23 -5 0 -18 16 -28 37 -19 36 -19 36 -24 10z"/>
<path d="M2185 2471 c-5 -9 134 -4 144 5 2 2 -28 4 -67 4 -39 0 -73 -4 -77 -9z"/>
<path d="M2460 2160 c-64 -56 -83 -80 -62 -80 5 0 21 14 38 31 16 17 48 44 72
60 40 28 54 49 32 49 -5 0 -41 -27 -80 -60z"/>
<path d="M2530 1415 c-6 -8 -47 -35 -91 -60 -82 -47 -129 -99 -129 -143 0 -13
-7 -30 -15 -38 -20 -21 -19 -40 5 -64 11 -11 26 -35 34 -55 9 -20 30 -44 50
-56 32 -18 34 -23 24 -45 -16 -34 13 -64 62 -64 24 0 43 -7 55 -20 10 -11 23
-20 30 -20 7 0 20 9 30 20 10 11 31 20 47 20 61 0 103 47 72 81 -9 10 -12 19
-6 19 21 0 81 61 87 89 3 17 14 31 26 34 23 6 27 55 5 63 -7 3 -16 22 -20 43
-7 48 -54 96 -132 138 -33 18 -68 41 -79 53 -21 24 -38 25 -55 5z m129 -80
c64 -34 80 -48 99 -85 27 -55 28 -88 1 -150 -23 -55 -54 -80 -96 -80 -26 0
-25 2 14 19 62 29 90 93 59 134 -8 10 -12 26 -10 35 6 20 -57 88 -89 98 -12 3
-32 16 -44 27 -13 11 -23 18 -23 15 0 -12 40 -92 40 -80 0 14 36 17 44 3 3 -5
-1 -11 -9 -15 -19 -7 -19 -42 0 -49 17 -7 29 8 19 24 -4 7 1 10 12 7 25 -4 31
-43 8 -52 -9 -4 -25 -4 -35 -1 -24 8 -89 124 -89 158 0 20 -4 24 -20 20 -11
-3 -18 -9 -15 -13 3 -4 -20 -21 -50 -36 -30 -16 -55 -36 -55 -44 0 -8 -9 -21
-21 -28 -24 -15 -49 -70 -49 -106 0 -14 14 -42 32 -62 28 -31 36 -35 69 -32
30 3 35 1 27 -9 -13 -16 -49 -17 -82 -2 -32 15 -66 87 -66 140 0 79 42 132
140 176 25 12 54 28 65 36 15 12 23 13 34 4 8 -7 48 -30 90 -52z m-134 -59
c-20 -53 -39 -73 -51 -55 -5 8 -3 9 5 4 9 -5 12 -2 9 11 -2 11 -15 21 -33 25
-27 6 -29 8 -7 13 44 10 63 19 73 37 19 36 22 12 4 -35z m83 -103 c10 -11 29
-23 43 -25 13 -1 30 -14 37 -28 13 -24 13 -24 8 13 -3 27 -1 37 7 34 25 -8 18
-61 -13 -95 -32 -34 -50 -35 -50 -1 0 12 7 19 20 19 23 0 26 22 6 40 -24 19
-59 7 -83 -29 -13 -19 -23 -28 -23 -22 0 18 21 54 39 68 14 11 14 14 1 22 -18
12 -41 -5 -33 -25 8 -22 -15 -17 -27 6 -8 16 -8 20 4 20 20 0 29 17 18 36 -7
13 -11 12 -26 -10 -9 -14 -23 -26 -32 -26 -11 0 -7 10 15 37 17 21 31 44 31
53 0 8 9 -3 20 -25 10 -22 27 -50 38 -62z m-152 36 c19 -21 19 -21 -11 -18
-43 5 -55 -7 -55 -54 0 -31 -3 -38 -10 -27 -15 23 -12 50 11 86 24 39 38 42
65 13z m-30 -68 c-14 -15 -15 -24 -7 -38 10 -17 10 -17 11 0 0 29 45 21 74
-14 14 -17 26 -37 26 -44 0 -7 3 -21 7 -31 4 -12 3 -15 -5 -10 -8 5 -12 -3
-12 -23 l0 -31 -35 17 c-37 18 -38 33 0 33 33 0 38 25 15 71 -21 40 -43 50
-54 24 -5 -14 6 -20 27 -16 5 1 7 -4 5 -11 -3 -7 -16 -13 -31 -13 -14 -1 -24
2 -21 6 5 9 -21 31 -28 24 -9 -10 4 50 15 63 5 6 14 12 20 12 5 0 2 -9 -7 -19z
m91 -3 c11 -13 24 -34 27 -48 6 -21 4 -20 -15 8 -12 18 -36 39 -53 47 -30 13
-31 13 -5 14 15 1 34 -9 46 -21z m121 -29 c-10 -5 -18 -22 -18 -37 0 -21 -2
-24 -10 -12 -6 9 -10 10 -10 3 0 -6 -2 -17 -5 -25 -8 -21 10 -39 46 -47 l34
-8 -37 -18 c-31 -15 -40 -16 -53 -5 -18 15 -19 49 -3 87 22 49 40 73 57 73 14
-1 14 -2 -1 -11z m-34 -176 c17 3 45 9 61 12 27 7 28 6 15 -8 -21 -20 -93 -30
-113 -14 -9 6 -19 26 -22 42 l-6 30 17 -33 c15 -30 21 -33 48 -29z m-83 0 c23
6 25 -8 3 -17 -41 -16 -105 7 -90 32 5 9 15 8 38 -4 17 -9 39 -14 49 -11z m40
-46 c-13 -13 -26 -3 -16 12 3 6 11 8 17 5 6 -4 6 -10 -1 -17z"/>
<path d="M1568 4280 c32 -20 38 -34 26 -64 -5 -12 -11 -13 -27 -5 -20 9 -20 9
-5 -4 15 -12 12 -17 -38 -56 -61 -48 -83 -77 -94 -124 l-7 -32 -12 30 c-22 54
5 133 63 188 21 20 24 26 10 18 -57 -28 -102 -122 -90 -185 13 -64 62 -133
123 -168 86 -50 123 -89 123 -131 0 -19 -8 -45 -19 -58 -30 -40 -60 -105 -72
-159 -11 -53 -2 -100 29 -148 24 -36 24 -19 1 33 -35 79 -21 146 52 262 22 34
27 73 14 113 -6 21 0 18 39 -20 87 -84 84 -145 -9 -225 -69 -59 -84 -99 -56
-152 24 -45 26 -42 7 12 -16 45 -7 73 34 110 l23 20 -22 -43 c-12 -24 -20 -46
-18 -48 3 -3 15 17 28 43 12 26 37 65 55 85 18 20 40 61 50 92 17 53 17 59 1
109 -18 56 -46 88 -114 131 -63 39 -83 64 -83 107 0 21 5 41 10 44 6 3 10 1
10 -4 0 -16 42 -13 68 5 27 19 29 64 4 87 -26 24 -36 21 -12 -3 24 -24 25 -43
4 -64 -20 -20 -54 -21 -54 -1 0 8 -4 15 -10 15 -5 0 -10 -6 -10 -14 0 -7 -7
-19 -15 -26 -20 -17 -19 -73 3 -99 9 -11 48 -42 86 -68 79 -55 106 -97 105
-163 0 -40 -1 -42 -10 -20 -17 44 -91 110 -174 156 -92 51 -105 60 -128 94
-21 31 -22 62 -1 107 24 49 73 83 167 113 86 28 124 60 111 93 -9 25 -22 20
-17 -7 4 -17 -2 -28 -18 -40 -38 -26 -56 -21 -53 17 l3 32 -8 -33 c-5 -18 -17
-39 -27 -47 -22 -15 -33 -10 -16 7 31 31 -2 108 -45 108 -12 0 -7 -7 15 -20z"/>
<path d="M1421 3798 c-37 -20 -46 -41 -35 -84 13 -54 60 -84 130 -84 43 0 56
4 68 22 20 28 20 51 1 88 -26 50 -117 82 -164 58z m96 -17 c44 -21 63 -45 63
-83 0 -35 -19 -48 -68 -48 -76 0 -134 55 -117 110 13 40 60 48 122 21z"/>
</g>
</svg>